<svg xmlns="http://www.w3.org/2000/svg" width="254" height="72" viewBox="0 0 254 72">    <g fill="none" fill-rule="evenodd">        <path fill="#AF263D" d="M36.332 41.298h-.001l-.14.303.141-.303z"/>        <path fill="#00020B" d="M.72 26.656l-.392.094v1.394c.187 3.15.586 5.721 1.348 8.51l.43.002C1.332 33.84.907 31.288.72 28.137v-1.481z"/>        <path fill="#FEFEFE" d="M38.864 27.026l-.015.007h-.002a1.094 1.094 0 0 1-.409.084h-.002a.825.825 0 0 1-.613-.272.982.982 0 0 1-.121-.16c-.443.134-.904.244-1.165.348a1.099 1.099 0 0 1-.41.084h-.003a.827.827 0 0 1-.613-.272 1.004 1.004 0 0 1-.122-.16c-.439.134-.897.244-1.16.348a1.09 1.09 0 0 1-.408.084h-.004a.83.83 0 0 1-.613-.272.987.987 0 0 1-.13-.177c-.458.142-.945.255-1.216.365a1.098 1.098 0 0 1-.41.084h-.004a.828.828 0 0 1-.612-.272.943.943 0 0 1-.11-.143l-.024.007v-.002c-.419.126-.843.228-1.088.326a1.116 1.116 0 0 1-.41.084h-.002a.827.827 0 0 1-.614-.272 1.267 1.267 0 0 1-.113-.148l-.025.008-.002-.003c-.423.127-.855.232-1.106.332a1.114 1.114 0 0 1-.41.083h-.001a.82.82 0 0 1-.613-.272.887.887 0 0 1-.121-.16c-.441.134-.9.244-1.16.348a1.102 1.102 0 0 1-.41.084h-.004a.817.817 0 0 1-.282-.05l-.693.517-1.187.89v4.019c.227-.11.538-.258.778-.362.173-.075.359-.133.551-.134a.675.675 0 0 1 .523.223c.138.16.212.383.234.676.024.322.037.587.037.816 0 .436-.05.748-.202 1.011-.153.264-.383.446-.692.666-.591.423-1.049.762-1.229.896v.368l4.342.003h.876c.134-.18.472-.639.895-1.23.221-.309.404-.539.666-.692.265-.151.576-.201 1.013-.201.227 0 .492.014.812.036.293.022.518.095.676.235.16.14.227.34.223.522 0 .193-.059.379-.133.553-.103.238-.253.55-.362.777H35.335c.134-.18.472-.639.894-1.23.222-.309.406-.539.67-.69.265-.152.577-.202 1.014-.202.07 0 .142.002.22.004h.009c.547-2.501.723-4.7.722-6.394v-1.118zM31.267 48.701a36.102 36.102 0 0 0 3.32-4.894c-.263.018-.487.027-.682.027-.435 0-.745-.05-1.008-.2l-.018-.013c-.248-.15-.425-.37-.636-.662a82.33 82.33 0 0 0-.907-1.246H27.88l.01.022c.097.202.222.462.317.679.012.027.023.05.032.075l.018.037c.067.164.118.338.12.518 0 .18-.065.38-.224.519l-.001.002c-.015.011-.028.023-.043.033l-.021.015-.019.012c-.143.095-.33.149-.562.17l-.032.001c-.322.024-.59.038-.818.038-.435 0-.745-.05-1.01-.2a1.647 1.647 0 0 1-.373-.318 4.427 4.427 0 0 1-.292-.373l-.33-.46c-.263-.364-.468-.641-.563-.77h-1.63v5.9c.226-.11.538-.26.777-.363l.055-.022c.157-.063.325-.11.496-.111.15-.001.311.043.443.148.007.007.016.012.023.02.002.002.005.003.005.005a.679.679 0 0 1 .144.183c.046.082.081.18.105.289.017.076.03.162.037.254.024.321.036.587.036.816 0 .102-.001.197-.008.286-.02.292-.076.521-.193.725-.153.263-.382.446-.691.667-.523.373-.942.68-1.157.839l-.072.054V55.42c.226-.109.538-.256.776-.359.12-.052.243-.094.37-.115a.967.967 0 0 1 .175-.018.68.68 0 0 1 .497.197l.006.005a.813.813 0 0 1 .163.26c2.755-2.163 4.998-4.422 6.822-6.69M17.477 57.256v-2.747c-.09-.065-.244-.18-.448-.33-.213-.156-.48-.35-.78-.563h-.002c-.233-.168-.42-.312-.564-.487a1.226 1.226 0 0 1-.127-.182 1.439 1.439 0 0 1-.168-.504 3.056 3.056 0 0 1-.03-.358c-.002-.047-.002-.096-.002-.147v-.066c.002-.214.015-.458.035-.749l.008-.083c.03-.253.101-.449.228-.593a.646.646 0 0 1 .327-.201.735.735 0 0 1 .195-.023c.193 0 .377.06.55.134.053.023.11.048.17.076l.188.086c.15.07.298.14.42.2v-3.494a71.667 71.667 0 0 0-1.231-.896l-.23-.17a1.76 1.76 0 0 1-.46-.496 1.423 1.423 0 0 1-.165-.493 2.616 2.616 0 0 1-.033-.365c-.002-.05-.002-.101-.002-.154v-.065c.002-.215.015-.46.035-.753l.01-.088c.029-.25.1-.443.226-.585a.678.678 0 0 1 .522-.223l.069.001.003.001h.002a1.435 1.435 0 0 1 .478.131c.238.104.55.252.776.363v-1.72h-4.144c-.092.123-.282.38-.528.72-.113.153-.236.325-.368.51-.22.307-.402.536-.665.69-.263.15-.575.201-1.009.2a9.814 9.814 0 0 1-.818-.035l-.066-.007c-.26-.026-.462-.098-.61-.227a.629.629 0 0 1-.143-.179.716.716 0 0 1-.082-.343 1.477 1.477 0 0 1 .112-.5l.023-.054c.052-.12.117-.259.182-.399l.181-.376H6.046l-.282.385-.056.075c-.154.212-.345.474-.556.77-.003.006-.007.01-.012.017-.027.037-.053.075-.08.11l-.028.038c-.032.039-.062.08-.093.117l-.013.015-.081.095a1.943 1.943 0 0 1-.121.122c-.002 0-.003.002-.005.003 3.849 7.588 9.51 11.841 12.758 13.796"/>        <path fill="#00020B" d="M17.909 57.99v-.002l-.309-.178.309.18zM4.192 43.337l.085.17c-.028-.055-.055-.114-.084-.17zM16.15 50.223c.192 0 .377.062.549.143.054.024.11.05.17.079-.06-.03-.116-.055-.17-.08a1.326 1.326 0 0 0-.55-.142M15.356 51.872a12.377 12.377 0 0 0 0 0M17.51 48.1V50.718 47.226v.873zM16.28 53.645c-.246-.178-.445-.331-.597-.516.152.185.351.338.598.516M5.742 42.173c-.163.211-.365.474-.59.77l-.011.017c.004-.006.009-.01.01-.017l.591-.77M11.772 43.633c.263-.154.445-.383.665-.69-.22.307-.402.536-.665.69-.265.15-.575.2-1.009.2.434.002.746-.05 1.009-.2M15.355 44.586c.003-.214.016-.46.038-.753l.01-.088-.01.088c-.02.293-.035.539-.038.753M9.269 43.575c.147.137.35.212.61.24-.26-.028-.463-.103-.61-.24M5.031 43.11l.03-.04-.03.04M4.926 43.241l.014-.016-.014.016M13.365 41.713c-.098.126-.299.387-.56.734.261-.347.462-.608.56-.734M16.22 42.939l-.002-.001.003.001M17.478 43.433v-1.72 1.72z"/>        <g fill="#00020B">            <path d="M34.724 43.797l-.135.009a36.064 36.064 0 0 1-3.322 4.896c-1.823 2.268-4.067 4.526-6.822 6.69.04.097.068.208.082.336l.015.116-.005.004c4.978-3.873 8.343-8.097 10.564-12.113l-.091.022c-.081.015-.177.033-.286.04"/>            <path d="M36.898 34.735c-.264.153-.447.382-.669.691-.422.592-.76 1.05-.894 1.23h-3.87c.11-.227.259-.54.362-.778.074-.173.133-.359.134-.551a.674.674 0 0 0-.224-.522c-.158-.141-.383-.214-.675-.235-.32-.024-.586-.037-.813-.037-.437 0-.748.05-1.013.201-.263.153-.445.383-.666.692-.423.592-.762 1.05-.895 1.23h-.877l-4.34-.003v-.369c.179-.133.638-.473 1.229-.895.308-.22.538-.402.691-.665.152-.265.201-.576.201-1.011 0-.23-.012-.495-.036-.816-.022-.293-.095-.517-.234-.677a.682.682 0 0 0-.523-.224c-.193.001-.379.06-.551.135-.24.103-.551.252-.777.362v-4.019c.184-.138.655-.493 1.186-.89l.694-.517a.842.842 0 0 1-.333-.222.992.992 0 0 1-.13-.175l-.031.01v-.003c-.45.139-.921.249-1.185.356a1.126 1.126 0 0 1-.411.084h-.003a.828.828 0 0 1-.614-.272c-.047-.05-.08-.1-.11-.142l-.019.006-.002-.002c-.417.127-.844.228-1.09.326a1.119 1.119 0 0 1-.41.084h-.002a.827.827 0 0 1-.612-.272.93.93 0 0 1-.134-.184l-.032.012v-.003c-.456.142-.94.255-1.209.363a1.113 1.113 0 0 1-.408.084h-.004a.758.758 0 0 1-.121-.01v2.322l-.209-.1c-.188-.09-.398-.186-.57-.262a1.405 1.405 0 0 0-.551-.134h-.005a.675.675 0 0 0-.514.222s-.002 0-.002.003c-.115.13-.184.303-.217.522-.008.05-.015.1-.02.154-.017.262-.03.486-.034.685v.13c0 .434.05.746.2 1.01.096.165.221.297.378.428a8.719 8.719 0 0 0 .313.239l.488.35.037.028c.333.24.584.425.706.516v3.435h-1.08c-.135-.18-.474-.637-.896-1.229a4.977 4.977 0 0 0-.22-.292 1.628 1.628 0 0 0-.447-.4 1.469 1.469 0 0 0-.514-.169 3.344 3.344 0 0 0-.499-.032c-.084 0-.174.002-.27.005-.163.007-.342.017-.544.032-.293.021-.515.095-.675.235a.598.598 0 0 0-.167.234.722.722 0 0 0-.057.286v.012c.003.19.058.371.133.542l.097.214c.088.192.186.4.267.563H8.587a89.225 89.225 0 0 1-.946-1.3 2.697 2.697 0 0 0-.417-.48l-.014-.012-.001-.001a1.141 1.141 0 0 0-.302-.187 1.62 1.62 0 0 0-.469-.122 3.643 3.643 0 0 0-.424-.02c-.083 0-.17 0-.263.004-.165.006-.347.016-.55.032-.294.021-.517.095-.678.235a.651.651 0 0 0-.208.372.731.731 0 0 0-.015.15c.002.192.059.378.133.552.105.239.253.55.364.777H1.675l.073.262a36.444 36.444 0 0 0 2.445 6.419l.08.16.108.215v-.001l.196-.136a1.554 1.554 0 0 0 .243-.214l.024-.026.082-.095c.004-.006.009-.01.013-.014.031-.038.06-.079.092-.119l.028-.038.082-.11a111.25 111.25 0 0 1 .567-.786l.056-.075.282-.385H9.542c-.055.112-.117.243-.181.377-.065.139-.13.278-.183.399l-.021.053c-.054.131-.094.268-.108.407-.002.03-.005.06-.005.093a.668.668 0 0 0 .224.522c.148.13.35.2.61.226a17.024 17.024 0 0 0 .508.034c.136.006.263.009.378.009.433 0 .743-.049 1.008-.2.263-.154.445-.383.665-.69.132-.184.255-.357.367-.511.247-.34.437-.595.528-.719h4.146v1.72a25.013 25.013 0 0 0-.817-.38 1.449 1.449 0 0 0-.437-.114h-.003l-.004-.001-.069-.001a.673.673 0 0 0-.521.223c-.126.141-.197.335-.226.585-.005.027-.007.058-.01.088-.021.292-.033.539-.036.754v.064c0 .052.001.103.003.154.003.133.015.255.033.366.031.186.082.346.165.492.114.193.266.342.461.495.071.056.15.112.23.172a58.345 58.345 0 0 1 1.23.896V50.719c-.123-.06-.27-.13-.42-.2-.062-.029-.127-.06-.188-.087l-.17-.075a1.386 1.386 0 0 0-.55-.134.7.7 0 0 0-.194.023.647.647 0 0 0-.328.2c-.127.146-.199.342-.227.595a13.126 13.126 0 0 0-.044.831v.066a3.866 3.866 0 0 0 .032.506c.03.192.083.357.168.504.037.066.08.123.127.18.143.175.331.32.564.488h.002c.3.213.567.407.779.563l.45.33v3.23l.102.06.02.011.291.168c1.21.685 1.964.994 1.972.997l.098.04.09-.055a51.594 51.594 0 0 0 4.398-3.044l.088-.068.005-.005-.015-.115a1.26 1.26 0 0 0-.082-.337.84.84 0 0 0-.163-.26c-.003-.001-.003-.002-.005-.005a.68.68 0 0 0-.498-.196 1.496 1.496 0 0 0-.544.133c-.24.102-.551.25-.777.358V51.403l.072-.054c.216-.159.634-.466 1.157-.838.31-.222.538-.405.691-.667.117-.204.172-.433.193-.725.007-.09.008-.185.008-.286 0-.231-.012-.497-.036-.818a1.855 1.855 0 0 0-.037-.253 1.068 1.068 0 0 0-.105-.289.69.69 0 0 0-.092-.132c-.016-.02-.034-.035-.052-.051a.015.015 0 0 0-.005-.005.695.695 0 0 0-.466-.167 1.36 1.36 0 0 0-.496.11l-.055.022c-.24.104-.551.253-.777.363v-5.9h1.63c.096.13.3.406.563.77.101.141.213.295.33.46.102.14.195.265.292.373a1.648 1.648 0 0 0 .374.318c.264.15.574.2 1.009.199.229 0 .496-.012.818-.036l.032-.002c.231-.02.419-.075.562-.17.008-.004.014-.008.02-.013.007-.003.013-.01.02-.014.015-.01.028-.022.042-.034h.002a.68.68 0 0 0 .223-.521 1.38 1.38 0 0 0-.12-.517l-.016-.037-.033-.075c-.095-.217-.22-.476-.318-.679l-.008-.022h3.456a82.328 82.328 0 0 1 .907 1.246c.211.292.388.512.636.662l.017.013c.265.15.574.2 1.01.199.196 0 .42-.009.683-.028.045 0 .088-.005.135-.008.11-.007.205-.025.286-.04l.09-.022.046-.083c.055-.1.111-.202.164-.304.084-.156.168-.314.247-.47l.037-.071-.02-.078a1.798 1.798 0 0 0-.084-.24 26.097 26.097 0 0 0-.363-.776h1.004l.057-.12c.001-.004.002-.007.004-.009l.13-.286a33.574 33.574 0 0 0 2.186-6.5l.055-.24-.213-.01-.032-.002-.185-.008a6.31 6.31 0 0 0-.22-.003c-.437 0-.75.049-1.015.2M1.77 25.398h.003-.003M2.974 26.067l.037-.049c-.012.016-.025.032-.037.05M2.966 26.08c-.01.015-.018.03-.026.045l.026-.045M2.932 26.141l-.018.042.018-.042M2.908 26.202c-.005.013-.01.026-.012.039.002-.013.007-.026.012-.04M1.616 26.264c-.02.016-.041.032-.063.047l-.005.002.005-.002a.984.984 0 0 0 .063-.047M1.337 26.43l.01-.004-.01.004M1.437 26.38c.008-.006.016-.01.025-.015l-.025.014M3.068 25.958l-.051.053.05-.053M1.886 25.77v.01a.561.561 0 0 1 .001 0v-.01M3.675 25.586l-.105.058.105-.058M3.543 25.659l-.092.052.092-.052M.823 25.955a.912.912 0 0 1 .065-.053c-.023.017-.044.035-.065.053M5.284 26.191l-.016.053.016-.053M5.34 26.079l-.021.036c.007-.012.014-.025.022-.036M3.65 26.468l.016-.008-.017.008M3.502 26.53c.009-.004.02-.007.029-.012l-.03.012M5.396 26.005"/>        </g>        <path fill="#00020B" d="M5.528 25.888v-.001z"/>        <g fill="#00020B">            <path d="M5.65 25.818l.128-.075c.032-.02.069-.04.106-.06-.037.02-.074.04-.106.06l-.128.075M5.51 25.902c-.022.017-.044.034-.064.052a.678.678 0 0 1 .063-.05c.004-.005.01-.008.014-.011a.184.184 0 0 1-.014.01M6.134 25.539l.072-.04-.072.04zM7.643 26.084c-.007.011-.012.023-.02.034.008-.011.013-.023.02-.034M7.588 26.199c-.003.012-.008.023-.01.036.002-.013.007-.024.01-.036M7.611 26.141c-.005.012-.009.024-.016.035.007-.011.01-.023.016-.035M7.657 26.061l.026-.033-.026.033M5.838 26.492l.018-.007-.018.007M6.073 26.378l.02-.012-.02.012M7.567 26.29c.001-.012.002-.023.006-.035-.004.012-.005.023-.006.036M8.289 25.62l-.053.03.053-.03M7.732 25.973c-.01.01-.022.02-.032.032l.032-.032M7.922 25.84l.186-.11.095-.053-.095.054c-.075.043-.136.079-.186.11M8.764 25.365a7.874 7.874 0 0 0-.124.066l.124-.066zM9.86 26.202l-.011.037.01-.037M9.927 26.067l.039-.052c-.013.017-.027.034-.039.052M8.414 26.395l.026-.013c-.008.005-.017.01-.026.013M9.845 26.26c-.003.011-.004.022-.006.034.002-.012.003-.023.006-.034M10.6 25.6l-.087.049.087-.049M9.97 26.014a.663.663 0 0 1 .122-.111v-.001a.702.702 0 0 0-.122.112M8.865 25.554l.008.018.004.01.003.008c.02.058.03.117.03.177l-.001-.049c.311-.167.637-.329.822-.4.132-.05.282-.084.423-.084.14 0 .273.032.38.098a.61.61 0 0 1 .195.193l.157-.084.008-.004.17-.092h.001l.003-.001a.996.996 0 0 0-.334-.338 1.104 1.104 0 0 0-.58-.154c-.197 0-.391.043-.562.11-.201.078-.5.226-.8.384l.073.208zM10.086 25.901l.018-.012-.018.012zM10.63 25.585c.033-.02.069-.039.104-.059l-.105.059M10.728 25.531l.168-.09-.167.089v.001z"/>            <path d="M11.155 25.517c.01.022.02.043.028.064l.002.005v.003a.558.558 0 0 1 .027.112 9.16 9.16 0 0 1 .79-.382c.133-.052.283-.085.426-.085.233.006.428.071.569.281l-.112.061.117-.064v-.001l.16-.085.023-.013.15-.08a1.035 1.035 0 0 0-.907-.482c-.2 0-.391.044-.564.111a8.183 8.183 0 0 0-.797.382l-.001.001.089.172zM12.129 26.144l-.016.039.016-.039M12.164 26.082c-.01.014-.017.028-.026.043l.026-.043M11.12 26.075a.189.189 0 0 1-.019.026c-.018.023-.036.043-.053.062l.053-.062a.189.189 0 0 0 .02-.026M12.173 26.067c.01-.016.023-.031.035-.047-.012.016-.025.03-.035.047M11.041 26.166c-.003.004-.007.006-.01.011.003-.005.007-.007.01-.011M12.105 26.205c-.002.011-.008.024-.01.035.002-.011.008-.024.01-.035M10.59 26.46l.014-.007-.014.007M12.09 26.263l-.006.033.006-.033M10.445 26.523l.03-.013-.03.013M10.704 26.405l.026-.014-.026.014M12.877 25.584l-.111.062.111-.062M12.266 25.958c-.018.017-.034.035-.05.052a.638.638 0 0 1 .05-.052M12.441 25.841l.203-.12a8.175 8.175 0 0 0 .002 0c-.083.047-.149.087-.205.12M11.216 25.768V25.767M13.426 25.512c.01.02.02.046.031.078l.002.004c.01.032.019.065.024.099v-.005c.295-.156.592-.304.766-.368.133-.054.284-.087.428-.086a.72.72 0 0 1 .393.104c.078.052.15.122.21.228-.117.064-.221.122-.31.174-.053.03-.097.057-.135.08.038-.023.082-.05.135-.08.127-.073.288-.164.462-.258l.066-.036.099-.053.017-.01a1.005 1.005 0 0 0-.338-.367 1.1 1.1 0 0 0-.6-.166c-.197 0-.393.044-.567.113-.196.073-.48.214-.77.367l.087.182zM13.172 25.426l-.17.09v.002c.055-.03.113-.06.17-.092l.023-.013-.023.013M14.485 26.19c-.006.02-.013.039-.018.059.005-.02.012-.04.018-.059M12.702 26.53c.008-.005.017-.007.026-.011l-.026.01M14.462 26.296c-.445.141-.942.252-1.268.381a.72.72 0 0 1-.268.058.442.442 0 0 1-.336-.15c-.001-.002-.006-.005-.008-.01.005 0 .009-.003.014-.004-.08.029-.16.056-.243.083l-.153.05c.026.042.063.091.11.143.12.13.328.271.613.271h.003c.125 0 .263-.026.408-.083.267-.108.745-.218 1.194-.356 0 0-.046-.35-.066-.383M12.85 26.467l.012-.006-.013.006M12.964 26.412l.027-.015c-.01.004-.018.01-.027.015M14.596 26.004c.012-.013.023-.026.038-.04-.015.014-.026.027-.038.04M15.602 25.393l-.104.056.104-.056zM16.812 26.138l-.017.041.017-.041M16.856 26.063c.009-.015.02-.029.031-.043-.011.014-.022.028-.03.043M16.845 26.079l-.025.041.025-.041M15.167 26.433l.012-.006-.012.006M15.03 26.495l.03-.013-.03.013M15.27 26.38l.024-.015-.024.015M16.765 26.293l.007-.04-.007.04M17.012 25.902c.009-.006.02-.012.03-.02-.01.008-.021.014-.03.02M16.95 25.954c.02-.018.042-.036.065-.053-.023.017-.043.035-.065.053M15.715 25.623c.013.047.02.095.02.144v-.014c.333-.18.69-.358.888-.435.131-.05.284-.084.426-.084a.72.72 0 0 1 .384.1.624.624 0 0 1 .201.205l-.103.056.173-.094.089-.048.154-.083.023-.013a.986.986 0 0 0-.336-.348 1.09 1.09 0 0 0-.585-.157c-.198 0-.393.043-.565.11a8.78 8.78 0 0 0-.77.367v.294zM16.941 25.963c-.015.015-.03.029-.042.045.012-.016.027-.03.042-.045M17.521 25.604l-.091.051.091-.05M17.388 25.678c-.013.008-.026.013-.036.02.01-.007.023-.012.036-.02"/>            <path d="M14.718 26.613c.075-.026.152-.054.226-.083l.086-.035.029-.013a1.717 1.717 0 0 0 .12-.055c.031-.016.06-.033.091-.048l.023-.013.095-.06a.939.939 0 0 0 .27-.268.53.53 0 0 0 .057-.415v-.294l-.1.055-.019.009-.098.053-.066.036c-.174.094-.336.184-.461.257-.054.03-.097.057-.137.08-.056.034-.098.06-.128.083-.021.016-.042.03-.06.049l-.014.014a.357.357 0 0 0-.036.037l-.015.018-.029.037-.012.02a.312.312 0 0 0-.022.037.788.788 0 0 0-.029.06l-.005.016-.017.055a.37.37 0 0 0-.008.052c-.002.02-.005.04-.004.059 0 .045.005.085.013.12l.048.201v.005l.035-.012.167-.057zM17.798 25.457l-.094.051c.032-.017.063-.034.096-.05l.162-.088-.164.087M17.357 26.515l.032-.015-.032.015M17.611 26.397l.028-.015-.028.015M19.243 26.078c-.006.011-.012.02-.017.032.005-.01.012-.02.017-.032M19.43 25.9c.056-.039.136-.085.251-.152-.115.067-.195.113-.25.152M18.066 25.56c.003.007.01.019.013.036.02.057.03.115.03.173 0-.017 0-.033-.003-.05.314-.168.64-.33.823-.4.134-.053.284-.085.429-.085.146 0 .28.033.39.104a.639.639 0 0 1 .214.238l-.186.106c.062-.037.13-.074.2-.113v-.003l.133-.072.005-.002.183-.101a1.017 1.017 0 0 0-.34-.375 1.1 1.1 0 0 0-.6-.165c-.2 0-.394.043-.568.111a9.224 9.224 0 0 0-.789.38l.066.218zM19.283 26.025c-.008.01-.016.02-.022.03.006-.01.014-.02.022-.03M19.303 26l.027-.028-.027.029"/>            <path d="M16.785 26.51l-.001-.002a.513.513 0 0 1-.022-.152c-.002-.01 0-.023 0-.034-.085.023-.906.24-1.199.355a.734.734 0 0 1-.266.057.44.44 0 0 1-.337-.15c-.012-.015-.026-.03-.037-.046a6.154 6.154 0 0 1-.205.075l-.167.057c.029.048.07.11.13.176.119.13.327.271.613.271h.003c.125 0 .262-.026.407-.083.254-.103.705-.208 1.136-.337l-.002-.003-.053-.183z"/>            <path d="M18.08 25.597c-.004-.018-.011-.03-.012-.037h-.002L18 25.341l-.03.016-.022.013-.154.082a8.259 8.259 0 0 0-.278.152l-.086.049a.997.997 0 0 0-.045.025c-.011.007-.024.012-.033.02l-.055.03a5.516 5.516 0 0 0-.257.154c-.009.007-.02.013-.028.02a.588.588 0 0 0-.062.05l-.01.01a.604.604 0 0 0-.042.043l-.012.015c-.01.014-.022.027-.03.04-.004.007-.009.012-.012.019l-.023.04-.01.02c-.004.012-.012.024-.015.038a.173.173 0 0 0-.007.02c-.005.012-.01.025-.012.037l-.006.02-.005.037-.003.016-.001.012V26.356c0 .061.009.112.022.152v.003l.055.183v.003l.028-.01.16-.052c.08-.026.16-.055.238-.084l.092-.037.031-.013.113-.05.017-.008c.031-.015.063-.03.093-.046a.945.945 0 0 0 .383-.3.6.6 0 0 0 .075-.132.512.512 0 0 0 .01-.368M19.977 25.573c.045-.027.091-.052.14-.079l-.14.076v.003zM19.86 26.426l.014-.008-.014.008M19.728 26.486l.027-.012-.027.012M19.96 26.373l.026-.015-.026.015M20.097 26.286c-.006.005-.012.01-.02.014l-.001.001h.002l.02-.015M21.459 26.138c-.008.015-.015.031-.021.046l.02-.046M21.416 26.262c-.002.012-.005.023-.006.035.001-.012.004-.023.006-.035M20.39 25.603a.542.542 0 0 1-.078.477.58.58 0 0 1 .103-.313v-.001c.343-.183.712-.37.913-.447.132-.053.282-.085.425-.084.232.005.43.07.568.28a2.92 2.92 0 0 1-.105.057l.27-.146h.003l.003-.003.133-.07.037-.02a1.04 1.04 0 0 0-.909-.482c-.199 0-.394.044-.564.111-.216.085-.546.25-.87.42l.07.22zM22.186 25.593c-.033.017-.062.035-.093.052.03-.017.06-.035.093-.052M21.498 26.076a.66.66 0 0 1 .168-.173v-.001a.677.677 0 0 0-.168.174"/>            <path d="M19.172 26.461a.49.49 0 0 1-.007-.173c-.084.023-.978.263-1.296.389a.713.713 0 0 1-.266.057.437.437 0 0 1-.359-.176l.021-.007a8.253 8.253 0 0 1-.238.084l-.16.052c.03.046.068.102.12.158a.843.843 0 0 0 .612.273h.004c.125 0 .261-.026.408-.085.268-.109.753-.22 1.208-.363l-.047-.205v-.004z"/>            <path d="M20.39 25.603l-.07-.22-.001-.005-.021.013-.185.101-.003.002-.133.075c-.071.039-.139.076-.2.112l-.02.012a10.406 10.406 0 0 0-.326.195h-.003l-.018.016c-.004 0-.004.002-.005.003a.446.446 0 0 0-.053.042l-.024.023-.025.027a.26.26 0 0 0-.02.026c-.008.01-.016.018-.022.027-.006.01-.012.017-.019.026-.004.011-.01.02-.016.03a1.264 1.264 0 0 0-.03.062c-.002.006-.006.012-.006.017-.007.019-.013.036-.017.053l-.003.016-.005.03v.003a.49.49 0 0 0 .007.173v.003l.047.205v.002l.033-.011.17-.058a3.417 3.417 0 0 0 .306-.118l.025-.01c.038-.016.072-.032.106-.05l.015-.006a1.61 1.61 0 0 0 .086-.047l.025-.014c.03-.019.062-.037.09-.057h.003l.018-.014a.962.962 0 0 0 .215-.208.542.542 0 0 0 .078-.476M22.633 25.352l-.141.075.14-.075zM22.752 25.512l.03.068v.005l.003.005a.544.544 0 0 1 .023.098c.295-.156.595-.304.767-.37.134-.052.284-.085.427-.084.147 0 .28.032.39.104.08.051.15.122.21.23-.03.015-.057.03-.085.046l.237-.132.044-.023h.002a6.78 6.78 0 0 1 .138-.074 1.011 1.011 0 0 0-.337-.369 1.103 1.103 0 0 0-.6-.166c-.199 0-.394.044-.566.113a7.89 7.89 0 0 0-.77.367l.087.182zM22.487 25.426h.002-.002zM22.722 26.068c-.007.014-.018.026-.026.038-.01.014-.024.027-.035.04l.035-.04c.008-.011.019-.024.026-.038M22.288 26.412c.012-.005.022-.01.03-.016-.008.006-.018.01-.03.016M23.866 26.076l-.024.041.024-.041M23.833 26.133l-.019.043.02-.043M24.481 25.635c-.018.012-.04.024-.06.034.02-.01.042-.022.06-.034M24.378 25.693"/>        </g>        <path fill="#00020B" d="M22.815 25.772v-.005.005z"/>        <g>            <path fill="#00020B" d="M23.92 26.005l.04-.042-.04.042M21.438 26.535a.506.506 0 0 1-.032-.178v-.018c-.092.024-.858.228-1.136.338a.75.75 0 0 1-.27.057.439.439 0 0 1-.334-.15.593.593 0 0 1-.045-.054l.017-.007a5.52 5.52 0 0 1-.217.08l-.169.058c.028.05.07.116.134.184.12.13.328.272.612.272H20c.127 0 .264-.025.41-.084.246-.098.673-.2 1.09-.326l-.062-.171v-.001z"/>            <path fill="#00020B" d="M22.785 25.59l-.003-.005v-.005a.783.783 0 0 0-.03-.068l-.086-.182-.005.003-.036.019-.133.07-.003.004h-.002c-.094.05-.184.1-.27.147l-.036.02c-.031.016-.059.033-.088.049-.009.004-.016.01-.024.014a6.81 6.81 0 0 0-.412.244v.002a.639.639 0 0 0-.16.164c0 .002-.002.004-.004.006l-.029.052a.106.106 0 0 0-.007.014l-.019.044a.2.2 0 0 0-.028.112.124.124 0 0 0-.002.024l-.001.019V26.357c0 .075.015.136.031.178v.001l.063.171.001.002.019-.006.156-.05c.081-.026.161-.053.24-.083.037-.012.073-.027.108-.04l.029-.012.12-.051.018-.008.096-.047c.01-.006.02-.01.028-.016.038-.02.073-.039.107-.06.09-.056.171-.12.238-.195.01-.012.022-.023.032-.037l.026-.035a.535.535 0 0 0 .095-.298v-.003c0-.06-.01-.12-.029-.178M24.847 25.458l.03.002c.014.005.036.003.087.038a.188.188 0 0 1 .067.091c.02.057.03.117.03.177v-.014c.334-.178.69-.358.885-.433.135-.051.284-.084.428-.084.142 0 .275.031.384.1a.61.61 0 0 1 .2.204l.16-.087.177-.094a.977.977 0 0 0-.335-.349 1.1 1.1 0 0 0-.586-.157c-.2 0-.393.043-.566.11a9.454 9.454 0 0 0-.87.422l-.139.074h.048zM24.975 26.058c-.007.01-.012.019-.02.028-.004.007-.01.012-.016.019.006-.007.012-.012.016-.019l.02-.028M24.36 26.493c.008-.002.015-.006.023-.01-.008.004-.015.008-.023.01M24.597 26.379c.007-.004.015-.008.021-.013-.006.005-.014.009-.021.013M28.454 26.064c.008-.013.017-.024.026-.035-.009.011-.018.022-.026.035M28.385 26.203l-.012.034.012-.034M28.408 26.145l-.015.034.015-.034M28.44 26.087l-.022.034.022-.034M28.369 26.26l-.006.032.006-.032M29.141 25.592l-.108.06.108-.06M28.824 25.77l-.02.01.02-.01M29.42 25.437l-.01.005.01-.005.2-.107.073.215.016.042.001.003a.54.54 0 0 1 .027.12v-.008c.302-.162.613-.316.79-.383.133-.052.283-.085.425-.084.233.005.429.07.57.28l.118-.065.047-.024.17-.091.002-.001a1.031 1.031 0 0 0-.907-.483c-.2 0-.393.044-.565.111a8.694 8.694 0 0 0-.792.382c-.058.032-.118.062-.175.093M29.228 26.405c.01-.005.017-.01.027-.014-.01.004-.017.01-.027.014M30.657 26.138a.407.407 0 0 0-.02.046c.005-.016.013-.03.02-.046M28.97 26.522l.028-.011-.028.011M30.63 26.203l-.012.038.013-.038M31.406 25.582l.12-.066-.12.066M31.411 25.58l-.127.07.127-.07M31.518 25.519h.001l.128-.069-.126.068h-.003zM31.228 26.529c.009-.004.017-.008.025-.01-.008.002-.016.006-.025.01M31.375 26.467l.011-.006-.011.006M32.017 25.766v.002-.002zM.306 13.408V24.287H39.28v-10.88H.306zm34.737 7.851l.038-5.621c0-.292.243-.111.243-.111l.225.403c-.054.293 0 .475 0 .475l-.036 5.277c.054.422-.152.184-.152.184-.11-.054-.335-.477-.335-.477l.017-.13zm-7.79-2.582s-.04-1.373 0-1.503c0 0 .054-1.267.015-1.41 0 0 .02-.295-.037-.441 0 0 0-.184.318-.074 0 0 .112.205.73.112 0 0 .45.073.881.018 0 0 .958-.071 1.2 0 0 0 .375-.071.489.33l-.019 1.136.009.028c.044-.113.087-.249.193-.174a.3.3 0 0 1 .096.107l.018-1.168s.076-.223.376-.26c0 0 .47-.055.544-.017.073.037 1.084.093 1.366.037.282-.057.337.18 1.18-.24 0 0 .225.02.225.165 0 0-.076 1.557 0 1.851 0 0 0 2.859-.054 3.061l.037.914s.036.403-.619.44c0 0 .411.054-2.172-.019 0 0-.414-.018-.861.185 0 0-.096-.017-.096-.256 0 0 .074-.861 0-1.706l-.032-.738c-.046.014-.13.035-.17.014 0 .167-.007.422-.04.672-.03.227.073 1.302-.02 1.849 0 0-.018.182-.412.018 0 0-2.398.052-2.472-.018 0 0-.658.018-.713-.313 0 0 .094-2.508.04-2.6zm-.358-3.15s.13 0 .112.22l-.039 5.534s.056.365-.261.606c0 0-.17.197-.17-.115l.076-5.641s.02-.422.282-.604zm-5.142.03c.317-.44.505.44.505.44l-.077 5.514c-.017.187-.055.294-.055.294-.244.054-.39-.458-.39-.458l.017-5.79zM18.7 20.813l.034-2.326c-.018-.093.04-2.86.04-2.86.037-.29.71-.275.71-.275 1.779.058 1.74-.09 1.74-.09.323-.149.342.017.342.017.037.073-.038.807-.038.807.038.093-.039 5.222-.039 5.222-.056.295-.243.202-.243.202-.242.183-1.44.072-1.44.072-.376-.054-.976.093-.976.093-.096.109-.206-.054-.206-.054l.076-.808zm-2.943.403l.057-5.88c-.017-.148.205-.168.205-.168l.562.146c.133.111 1.556 0 1.556 0 .318.023.337.441.337.441.073.99-.076 5.755-.076 5.755-.02.274-.244.053-.244.053-.916-.035-1.273-.016-1.273-.016-.13.056-.675 0-.675 0-.465-.056-.45-.331-.45-.331zM15.53 15.5s.04.367.04.459l-.057 5.298s.057.4-.3.602c0 0-.093.038-.113-.22l.038-5.495s.038-.679.392-.644zm-4.981.101c.321-.44.505.44.505.44l-.075 5.516a1.4 1.4 0 0 1-.055.291c-.245.057-.394-.459-.394-.459l.019-5.788zm-3.051 5.233l.035-2.324c-.018-.092.04-2.859.04-2.859.036-.293.71-.275.71-.275 1.78.055 1.743-.093 1.743-.093.317-.146.338.02.338.02.036.073-.04.806-.04.806.04.091-.036 5.222-.036 5.222-.056.29-.245.2-.245.2-.242.184-1.439.074-1.439.074-.378-.055-.977.093-.977.093-.094.107-.207-.055-.207-.055l.078-.809zm-2.943.425l.056-5.88c-.02-.144.205-.166.205-.166l.562.149c.13.107 1.554 0 1.554 0 .32.018.34.44.34.44.074.989-.077 5.75-.077 5.75-.02.28-.245.056-.245.056-.914-.034-1.272-.016-1.272-.016-.13.054-.674 0-.674 0-.469-.054-.45-.333-.45-.333zm-.225-5.713s.036.367.036.459l-.057 5.293s.057.406-.298.607c0 0-.094.036-.113-.22l.038-5.498s.04-.676.394-.64zm2.34 7.202H3.75c-.373-.022-.337-.293-.337-.293v-.699c.018-.367-.375-.44-.375-.44-.543.112-.674-.218-.674-.218-.017-.383.619-.35.619-.35.525 0 .374-.454.374-.454l.038-2.769c-.038-.275-.712-.275-.712-.275-.433.075-.319-.33-.319-.33.208-.2.656-.181.656-.181.393.017.393-.404.393-.404l.018-.751c.434-.386.507-.073.507-.073-.243.366-.188 1.264-.188 1.264l-.016-.072c.016.088-.021 5.257-.021 5.257.037.567.43.439.43.439l2.435.035c.225 0 .245.147.245.147 0 .184-.15.167-.15.167zm-.316-.59h-1.93c-.282.055-.207-.201-.207-.201.17-.311.357-.238.357-.238.074.017.43.108.43.108.149.038 1.873.02 1.873.02.543.294 0 .42 0 .42l-.523-.11zm1.122.935c-.373 0-.413-.349-.413-.349-.018-.46.34-.46.34-.46.17-.07.375.385.375.385.038.369-.302.424-.302.424zm.206-1.061s.17-.182.28-.182c0 0 1.876.163 2.192-.055 0 0 .282-.057.359 0 0 0 .28.218.28.348 0 0-.018.163-.357.072l-2.227.019s-.582.128-.527-.202zm3.917-4.38l-.058 2.658s-.038.459.414.439c0 0 .468-.017.56.13 0 0 .318.457-.375.42 0 0-.428-.02-.52.055 0 0-.08.092-.134.951 0 0 .039.516-.355.46 0 0-2.605.038-2.848-.017 0 0-.261.073-.298-.13 0 0 0-.146.258-.146l2.627-.017s.241.126.241-.313c0 0 .096-1.996.107-4.197.002-.653.03-1.338.005-1.977 0 0-.057-.274-.133-.33 0 0 0-.292.32-.184 0 0 .283.02.21.441l.015.642s-.056.275.45.202c0 0 .506.073.526.255 0 0 .15.367-.451.331h-.431s-.188.11-.13.327zm6.274 5.05H14.95c-.375-.018-.337-.291-.337-.291v-.698c.019-.366-.374-.44-.374-.44-.542.108-.676-.223-.676-.223-.016-.38.62-.348.62-.348.524 0 .375-.455.375-.455l.037-2.766c-.037-.275-.712-.275-.712-.275-.43.07-.32-.333-.32-.333.209-.2.659-.182.659-.182.39.021.39-.4.39-.4l.02-.752c.432-.385.506-.074.506-.074-.245.365-.188 1.264-.188 1.264s-.035-.162-.017-.072c.017.092-.018 5.258-.018 5.258.035.568.43.44.43.44l2.435.035c.226 0 .244.147.244.147 0 .184-.151.164-.151.164zm-.317-.537h-1.933c-.279.057-.205-.198-.205-.198.17-.314.357-.24.357-.24l.43.11c.15.036 1.874.018 1.874.018.544.292 0 .422 0 .422l-.523-.112zm1.088.934c-.377 0-.414-.35-.414-.35-.019-.456.336-.456.336-.456.17-.074.377.383.377.383.034.37-.299.423-.299.423zm.24-1.095s.169-.184.284-.184c0 0 1.87.166 2.19-.057 0 0 .282-.051.357 0 0 0 .28.223.28.35 0 0-.019.166-.355.075l-2.23.018s-.581.128-.526-.202zm3.917-4.397l-.057 2.66s-.038.458.413.435c0 0 .472-.016.562.132 0 0 .318.457-.375.423 0 0-.43-.02-.525.053 0 0-.075.09-.131.952 0 0 .037.513-.356.459 0 0-2.606.035-2.85-.02 0 0-.26.074-.298-.128 0 0 0-.144.264-.144l2.621-.018s.245.126.245-.314c0 0 .094-1.996.107-4.197 0-.652.03-1.34.006-1.977 0 0-.059-.273-.13-.33 0 0 0-.292.317-.182 0 0 .28.019.205.44l.018.64s-.055.277.452.2c0 0 .504.077.524.259 0 0 .15.366-.452.327h-.428s-.189.112-.132.33zm7.54 5.046s0 .13-.205.09c0 0-1.556.147-2.962.094 0 0-.936.053-.992-.055 0 0-.15-.018-.15-.55 0 0 0-.494-.038-.586 0 0 .038-.257-.432-.31 0 0-.654.109-.672-.278 0 0 .092-.273.73-.239 0 0 .469.077.374-.29l.056-2.711s.057-.476-.263-.497c0 0-.299-.016-.393.02 0 0-.542 0-.504-.313 0 0 .187-.33.73-.255 0 0 .412.075.43-.384 0 0-.018-.935.206-.971 0 0 .469.016.339.144 0 0-.226.404-.207.497l-.019 1.224s-.02.79 0 .88c.019.093-.02 2.402-.02 2.402s-.018.442 0 .587v.988s-.037.44.3.33c0 0 3.297-.073 3.505-.017 0 0 .297.055.186.2zm-.058-.43l-3.071-.038-.336.021c-.212-.035-.016-.287.13-.46l.149-.127s.262.274.694.258l2.548.033s.28.02.263.165c0 0-.038.221-.377.147zm.826.797c-.188.037-.395-.022-.45-.258-.055-.24.04-.532.3-.585 0 0 .319.053.319.345 0 .296.018.46-.17.498zm.227-1s.335-.217.466-.182c0 0 1.704.108 2.228.019.523-.094.208-.019.208-.019s.448 0 .58-.164c0 0 .132-.145.207-.018l.28.404s.018.183-.3.162c0 0-3.052 0-3.147.02 0 0-.58.09-.522-.221zm5.56-.722s-.785-.017-.729.204c0 0-.056.514-.094.602 0 0 .076.42-.016.495 0 0-.06.238-.563.203 0 0-3.225-.02-3.728.018 0 0-.302-.038-.225-.296 0 0 .225-.109.372-.071.152.036 2.344-.017 2.344-.017s.954.072 1.103-.058l.226-.073s.093-.111.093-.256c0-.146.021-.64.021-.64l.054-.186s-.018-.18 0-5.074c0 0 .076-.385-.168-.622 0 0 0-.147.075-.127.038.01.047.014.047.015.051-.012.333-.077.384.039 0 0 .15.439.019.695 0 0-.038.53.244.53 0 0 .112.112.339.058 0 0 .485.054.485.201 0 0 0 .328-.337.274l-.45.036s-.3.057-.261.404c.036.346-.02 2.841-.02 2.841s0 .292.47.273c0 0 .58-.016.58.145 0 0 .149.37-.264.387z"/>            <path fill="#FEFEFE" d="M15.101 21.64c.02.257.12.219.12.219.379-.202.318-.602.318-.602s.06-5.206.06-5.298c0-.092-.042-.459-.042-.459-.376-.035-.415.644-.415.644l-.04 5.496z"/>            <path fill="#FEFEFE" d="M17.781 22.39l-2.436-.034s-.394.127-.428-.441c0 0 .034-5.166.016-5.258-.016-.09.018.071.018.071s-.057-.897.188-1.263c0 0-.074-.31-.507.074l-.017.753s0 .42-.392.399c0 0-.45-.018-.66.183 0 0-.109.403.321.332 0 0 .675 0 .712.275l-.037 2.766s.15.455-.376.455c0 0-.636-.032-.62.348 0 0 .135.331.677.224 0 0 .392.074.375.439v.698s-.04.274.336.29h2.923s.151.02.151-.163c0 0-.019-.147-.244-.147M22.934 17.277h.428c.602.04.452-.327.452-.327-.02-.181-.524-.259-.524-.259-.506.078-.452-.2-.452-.2l-.018-.64c.075-.421-.205-.44-.205-.44-.318-.11-.318.183-.318.183.072.056.13.328.13.328.025.638-.005 1.326-.005 1.978-.012 2.202-.107 4.197-.107 4.197 0 .44-.245.314-.245.314l-2.621.017c-.264 0-.264.144-.264.144.038.203.298.129.298.129.243.055 2.85.02 2.85.02.394.054.355-.459.355-.459.057-.86.132-.953.132-.953.095-.073.526-.053.526-.053.693.036.375-.421.375-.421-.092-.15-.562-.133-.562-.133-.452.022-.414-.437-.414-.437l.057-2.657c-.057-.219.132-.33.132-.33"/>            <path fill="#FEFEFE" d="M16.207 21.548s.544.055.674 0c0 0 .357-.018 1.273.016 0 0 .224.221.245-.053 0 0 .148-4.765.075-5.755 0 0-.018-.419-.336-.441 0 0-1.425.11-1.558 0l-.56-.145s-.224.02-.206.167l-.057 5.88s-.016.275.45.331m.098-4.35c.038-.092.358-.038.358-.038h.786c.75.241.634.77.634.77.057.533-.523.752-.523.752l-.037.295.543.842c.095.073.074.145.074.145-.074.201-.375 0-.375 0l-.672-1.026c-.057-.073-.17.056-.17.056l-.037.569.17.274c.112.145-.076.258-.076.258l-.6-.057c-.114-.056 0-.24 0-.24.15-.09.17-.326.17-.326l-.02-1.065.02-.77c0-.089-.15-.255-.15-.255-.134-.02-.095-.184-.095-.184"/>            <path fill="#FEFEFE" d="M17.523 18.39c.468-.442 0-.842-.074-.954-.077-.11-.452-.017-.452-.017l-.053.13c.017.4.017.95.017.95.356.275.562-.11.562-.11M18.83 21.676s.6-.146.976-.093c0 0 1.198.111 1.44-.072 0 0 .187.092.243-.202 0 0 .077-5.13.04-5.223 0 0 .074-.734.037-.806 0 0-.019-.166-.341-.018 0 0 .038.148-1.742.09 0 0-.672-.015-.709.275 0 0-.057 2.768-.04 2.86l-.035 2.327-.075.807s.11.164.206.055m.547-1.784c.188-.094.243-.42.243-.42v-1.815l-.168-.367c-.054-.146.317-.166.317-.166l.19.036c.13-.016.263.038.263.038.133.203-.095.314-.095.314l-.074.235c-.02.201 0 1.941 0 1.941.036.092.187.258.187.258 0 .166-.206.129-.206.129l-.544.02c-.17-.02-.113-.203-.113-.203M22.15 21.805s.04-.108.059-.294l.08-5.514s-.199-.878-.536-.441l-.019 5.791s.156.512.416.458"/>            <path fill="#FEFEFE" d="M19.49 20.095l.544-.02s.206.036.206-.13c0 0-.15-.165-.187-.256 0 0-.019-1.741 0-1.942l.075-.235s.227-.111.094-.314c0 0-.133-.055-.264-.038l-.189-.036s-.371.02-.317.166l.168.367v1.815s-.055.327-.242.42c0 0-.057.183.112.203"/>            <path fill="#00020B" d="M19.49 20.095l.544-.02s.206.036.206-.13c0 0-.15-.165-.187-.256 0 0-.019-1.741 0-1.942l.075-.235s.227-.111.094-.314c0 0-.133-.055-.264-.038l-.189-.036s-.371.02-.317.166l.168.367v1.815s-.055.327-.242.42c0 0-.057.183.112.203"/>            <path fill="#FEFEFE" d="M16.4 17.383s.15.165.15.254l-.02.77.02 1.064s-.02.238-.17.327c0 0-.114.184 0 .24l.6.057s.187-.113.076-.258l-.17-.274.036-.57s.114-.128.17-.056l.673 1.027s.301.201.375 0c0 0 .02-.072-.074-.145l-.543-.843.036-.294s.581-.22.524-.752c0 0 .115-.529-.634-.77h-.786s-.32-.053-.357.038c0 0-.04.164.094.185zm.598.036s.374-.093.45.017c.075.112.543.512.075.953 0 0-.206.385-.562.11 0 0 0-.55-.017-.95l.054-.13z"/>            <path fill="#00020B" d="M16.4 17.383s.15.165.15.254l-.02.77.02 1.064s-.02.238-.17.327c0 0-.114.184 0 .24l.6.057s.187-.113.076-.258l-.17-.274.036-.57s.114-.128.17-.056l.673 1.027s.301.201.375 0c0 0 .02-.072-.074-.145l-.543-.843.036-.294s.581-.22.524-.752c0 0 .115-.529-.634-.77h-.786s-.32-.053-.357.038c0 0-.04.164.094.185zm.598.036s.374-.093.45.017c.075.112.543.512.075.953 0 0-.206.385-.562.11 0 0 0-.55-.017-.95l.054-.13z"/>            <path fill="#FEFEFE" d="M3.9 21.684c.02.257.119.221.119.221.377-.202.316-.606.316-.606s.06-5.203.06-5.294c0-.092-.039-.459-.039-.459-.374-.035-.416.64-.416.64l-.04 5.498z"/>            <path fill="#FEFEFE" d="M6.577 22.434l-2.434-.036s-.394.129-.43-.438c0 0 .036-5.17.02-5.257-.02-.094.016.071.016.071s-.055-.897.189-1.264c0 0-.074-.311-.508.074l-.018.751s0 .42-.392.405c0 0-.449-.02-.656.18 0 0-.114.405.318.33 0 0 .674 0 .711.275l-.037 2.769s.15.455-.373.455c0 0-.637-.034-.62.349 0 0 .13.33.675.218 0 0 .392.074.374.441v.697s-.036.273.337.293H6.67s.152.02.152-.166c0 0-.02-.147-.246-.147M11.73 17.325h.431c.6.035.45-.332.45-.332-.019-.181-.524-.253-.524-.253-.507.072-.45-.203-.45-.203l-.017-.642c.074-.422-.208-.442-.208-.442-.32-.107-.32.186-.32.186.075.055.132.328.132.328.026.64-.003 1.325-.005 1.978-.011 2.2-.106 4.197-.106 4.197 0 .439-.243.312-.243.312l-2.625.017c-.26 0-.26.147-.26.147.038.203.299.13.299.13.242.055 2.847.018 2.847.018.395.055.357-.461.357-.461.054-.858.132-.951.132-.951.093-.074.521-.056.521-.056.693.038.375-.42.375-.42-.092-.146-.56-.13-.56-.13-.451.021-.414-.438-.414-.438l.058-2.658c-.058-.218.13-.327.13-.327"/>            <path fill="#FEFEFE" d="M5.004 21.591s.545.054.676 0c0 0 .357-.018 1.272.017 0 0 .224.223.244-.056 0 0 .15-4.762.076-5.749 0 0-.02-.424-.34-.442 0 0-1.422.108-1.553 0l-.562-.147s-.226.02-.204.165l-.057 5.88s-.02.279.448.332m-.07-4.393l.691.02s.226.183-.073.385c0 0 .037.289.43 1.41 0 0 .112.42.242.109l.377-1.3-.113-.386s-.114-.182.055-.201c0 0 .394-.037.451.11l-.168.347s-.412 1.78-.636 2.145c0 0-.037.366-.356.073 0 0-.732-2.253-.77-2.329l-.243-.161s-.149-.202.112-.222M10.948 21.848s.04-.108.059-.29l.08-5.516s-.196-.88-.535-.44l-.021 5.788s.158.515.417.458M7.628 21.698s.598-.149.977-.093c0 0 1.197.11 1.44-.074 0 0 .189.091.243-.2 0 0 .077-5.13.037-5.222 0 0 .076-.733.04-.807 0 0-.02-.165-.338-.02 0 0 .037.15-1.744.094 0 0-.672-.018-.71.275 0 0-.058 2.767-.039 2.858L7.5 20.835l-.077.808s.112.163.206.055m.246-4.444l.506-.056c.077.074.713-.019.713-.019.093-.035.148.093.148.093l.095.31c-.095.258-.187.037-.187.037-.037-.107-.412-.183-.412-.183-.318-.035-.28.423-.28.423-.094.235.055.53.055.53.32.13.43-.091.43-.091.018-.072.187-.054.187-.054.132.181 0 .474 0 .474-.058.094-.412-.128-.412-.128-.318-.017-.298.184-.298.184v.808c0 .144.15.275.15.275.672.089.73-.205.73-.205.186-.346.243-.11.243-.11.13.662-.393.57-.393.57-1.368-.017-1.2-.13-1.2-.13-.132-.018.056-.256.056-.256l.055-.144.021-1.945c0-.073-.057-.107-.057-.107-.224-.094-.15-.276-.15-.276"/>            <path fill="#FEFEFE" d="M5.063 17.581c.039.076.77 2.33.77 2.33.32.293.356-.073.356-.073.225-.367.637-2.145.637-2.145l.169-.348c-.057-.147-.452-.11-.452-.11-.17.019-.055.201-.055.201l.113.386-.377 1.3c-.13.312-.242-.11-.242-.11-.393-1.12-.43-1.408-.43-1.408.298-.203.073-.387.073-.387l-.692-.019c-.261.02-.112.221-.112.221l.242.162z"/>            <path fill="#00020B" d="M5.063 17.581c.039.076.77 2.33.77 2.33.32.293.356-.073.356-.073.225-.367.637-2.145.637-2.145l.169-.348c-.057-.147-.452-.11-.452-.11-.17.019-.055.201-.055.201l.113.386-.377 1.3c-.13.312-.242-.11-.242-.11-.393-1.12-.43-1.408-.43-1.408.298-.203.073-.387.073-.387l-.692-.019c-.261.02-.112.221-.112.221l.242.162z"/>            <path fill="#FEFEFE" d="M8.024 17.53s.057.034.057.106l-.022 1.947-.054.143s-.188.238-.056.256c0 0-.168.114 1.2.13 0 0 .524.092.393-.57 0 0-.057-.236-.244.11 0 0-.057.294-.73.205 0 0-.15-.131-.15-.274v-.81s-.02-.2.3-.184c0 0 .353.223.41.13 0 0 .133-.294 0-.475 0 0-.167-.019-.187.054 0 0-.11.221-.428.091 0 0-.15-.295-.055-.53 0 0-.04-.458.28-.423 0 0 .373.077.412.183 0 0 .091.221.186-.038l-.095-.309s-.054-.128-.148-.093c0 0-.635.093-.713.02l-.505.055s-.076.182.149.276"/>            <path fill="#00020B" d="M8.024 17.53s.057.034.057.106l-.022 1.947-.054.143s-.188.238-.056.256c0 0-.168.114 1.2.13 0 0 .524.092.393-.57 0 0-.057-.236-.244.11 0 0-.057.294-.73.205 0 0-.15-.131-.15-.274v-.81s-.02-.2.3-.184c0 0 .353.223.41.13 0 0 .133-.294 0-.475 0 0-.167-.019-.187.054 0 0-.11.221-.428.091 0 0-.15-.295-.055-.53 0 0-.04-.458.28-.423 0 0 .373.077.412.183 0 0 .091.221.186-.038l-.095-.309s-.054-.128-.148-.093c0 0-.635.093-.713.02l-.505.055s-.076.182.149.276"/>            <path fill="#FEFEFE" d="M36.582 20.766c-.47.019-.47-.273-.47-.273s.056-2.495.019-2.841a.345.345 0 0 1 .262-.404l.45-.036c.337.054.337-.274.337-.274 0-.147-.486-.2-.486-.2-.225.053-.339-.059-.339-.059-.281 0-.244-.53-.244-.53.131-.256-.017-.695-.017-.695-.052-.116-.334-.051-.384-.039 0-.001-.01-.006-.047-.015-.075-.02-.075.127-.075.127.243.237.167.622.167.622-.019 4.894 0 5.074 0 5.074l-.053.187s-.022.493-.022.64c0 .144-.092.255-.092.255l-.227.073c-.148.13-1.103.058-1.103.058s-2.191.053-2.344.017c-.147-.038-.372.071-.372.071-.077.258.225.296.225.296.504-.038 3.728-.018 3.728-.018.504.035.562-.203.562-.203.094-.075.017-.495.017-.495.037-.088.094-.602.094-.602-.057-.221.73-.204.73-.204.413-.017.264-.387.264-.387 0-.161-.58-.145-.58-.145M26.537 21.772c0 .312.181.115.181.115.336-.241.277-.606.277-.606l.04-5.534c.02-.22-.118-.22-.118-.22-.28.183-.3.604-.3.604l-.08 5.641z"/>            <path fill="#FEFEFE" d="M30.155 22.453c-.209-.056-3.504.017-3.504.017-.337.11-.3-.33-.3-.33v-.988c-.02-.145 0-.587 0-.587s.038-2.31.02-2.402c-.02-.09 0-.88 0-.88l.018-1.224c-.019-.093.206-.497.206-.497.131-.128-.337-.144-.337-.144-.226.036-.207.971-.207.971-.019.459-.43.384-.43.384-.543-.074-.73.255-.73.255-.038.314.505.314.505.314.093-.037.392-.021.392-.021.32.021.263.497.263.497l-.056 2.712c.094.366-.374.29-.374.29-.638-.035-.73.238-.73.238.018.386.672.278.672.278.47.053.432.31.432.31.037.092.037.586.037.586 0 .532.151.55.151.55.057.108.991.054.991.054 1.407.054 2.963-.093 2.963-.093.204.04.204-.09.204-.09.111-.145-.186-.2-.186-.2M35.382 21.866s.218.238.161-.184l.038-5.277s-.058-.182 0-.476l-.24-.402s-.256-.181-.256.111l-.041 5.621-.018.13s.239.423.356.477"/>            <path fill="#FEFEFE" d="M27.926 21.59c.074.07 2.472.017 2.472.017.393.165.412-.017.412-.017.094-.547-.01-1.622.02-1.85.034-.249.039-.504.039-.671a.034.034 0 0 1-.02-.024c-.02-.072-.15-.146-.15-.146-.228 0-.32.548-.32.548.13.46 0 .387 0 .387-.112.144-.468.035-.468.035-.171-.035-.057-.163-.057-.163.207-.04.264-.26.264-.26.094-.124.692-2.507.692-2.507.01-.02.02-.042.029-.066l-.01-.028.02-1.137c-.114-.4-.49-.33-.49-.33-.24-.07-1.2 0-1.2 0-.43.056-.88-.017-.88-.017-.618.093-.73-.112-.73-.112-.318-.11-.318.074-.318.074.057.147.037.441.037.441.04.143-.016 1.41-.016 1.41-.04.13 0 1.503 0 1.503.056.092-.04 2.6-.04 2.6.056.33.714.313.714.313zm.034-4.248l.17-.441.112-.019s.171.11.32.145h.88l.319-.145s.132.019.093.183c0 0 .057.42-.187.475 0 0-.15-.055-.225-.257 0 0-.243-.126-.263.297 0 0 .057 1.355 0 1.539l-.02.292s.077.202.19.275c0 0 .093.256-.132.236 0 0-.467-.034-.581-.016 0 0-.261 0 0-.328 0 0 .093-.131.073-.46 0 0 0-1.538.041-1.633 0 0 .036-.202-.093-.252l-.225.015-.28.258s-.058.275-.192-.02v-.144z"/>            <path fill="#FEFEFE" d="M30.584 18.513l.123.183s.316.018.434.018c.12 0 .14-.09.14-.182s-.221-.642-.221-.642l-.097-.109-.219.13c-.022.087-.16.602-.16.602"/>            <path fill="#FEFEFE" d="M31.878 19.357c.094.182.261.33.261.33.32.106 0 .2 0 .2-.13.055-.562-.018-.562-.018-.223-.035-.13-.112-.13-.112.095-.09.018-.457.018-.457-.018-.146-.186-.383-.186-.383-.076-.04-.208.128-.208.128l-.03.01.03.738c.076.845 0 1.706 0 1.706 0 .238.097.255.097.255.447-.202.86-.183.86-.183 2.584.072 2.173.019 2.173.019.655-.038.62-.44.62-.44l-.038-.915c.055-.202.055-3.06.055-3.06-.077-.296 0-1.852 0-1.852 0-.146-.226-.164-.226-.164-.842.42-.897.182-1.18.24-.28.055-1.293 0-1.366-.038-.075-.038-.544.018-.544.018-.3.036-.375.259-.375.259l-.019 1.168a.46.46 0 0 1 .057.17c.374.969.693 2.38.693 2.38m1.425-.733c-.789-.328-.713-.842-.713-.842.018-.754.73-.697.73-.697.057.092.302 0 .302 0 .261-.202.296 0 .296 0l.038.276c.039.332-.111.332-.111.332-.111-.04-.3-.26-.3-.26-.506-.296-.636.26-.636.26.093.305.506.491.506.491.43.181.674.552.674.552.338.512-.133.932-.133.932-.428.495-.937.09-.937.09l-.148-.035c-.281.242-.281 0-.281 0-.055-.603.074-.642.074-.642.111-.035.207.167.207.167-.018.164.28.31.28.31.62.312.694-.31.694-.31.038-.348-.542-.624-.542-.624M28.151 17.505l.28-.256.226-.016c.13.05.093.252.093.252-.041.094-.041 1.633-.041 1.633.02.329-.073.46-.073.46-.261.328 0 .328 0 .328.114-.019.581.016.581.016.226.02.132-.236.132-.236-.113-.073-.19-.275-.19-.275l.02-.293c.057-.182 0-1.539 0-1.539.02-.421.264-.295.264-.295.074.2.224.256.224.256.244-.055.188-.476.188-.476.038-.163-.094-.182-.094-.182l-.318.145h-.881c-.149-.036-.32-.145-.32-.145l-.111.019-.17.441v.143c.132.296.19.02.19.02"/>            <path fill="#00020B" d="M28.151 17.505l.28-.256.226-.016c.13.05.093.252.093.252-.041.094-.041 1.633-.041 1.633.02.329-.073.46-.073.46-.261.328 0 .328 0 .328.114-.019.581.016.581.016.226.02.132-.236.132-.236-.113-.073-.19-.275-.19-.275l.02-.293c.057-.182 0-1.539 0-1.539.02-.421.264-.295.264-.295.074.2.224.256.224.256.244-.055.188-.476.188-.476.038-.163-.094-.182-.094-.182l-.318.145h-.881c-.149-.036-.32-.145-.32-.145l-.111.019-.17.441v.143c.132.296.19.02.19.02"/>            <path fill="#FEFEFE" d="M33.15 19.557s-.297-.146-.28-.31c0 0-.095-.201-.206-.167 0 0-.13.039-.074.642 0 0 0 .242.28 0l.15.035s.508.405.936-.09c0 0 .47-.42.134-.932 0 0-.244-.37-.676-.552 0 0-.412-.186-.505-.491 0 0 .13-.556.636-.26 0 0 .19.22.3.26 0 0 .15 0 .111-.332l-.037-.276s-.036-.202-.297 0c0 0-.244.092-.303 0 0 0-.712-.057-.73.697 0 0-.074.514.713.842 0 0 .581.276.544.624 0 0-.076.622-.695.31"/>            <path fill="#00020B" d="M33.15 19.557s-.297-.146-.28-.31c0 0-.095-.201-.206-.167 0 0-.13.039-.074.642 0 0 0 .242.28 0l.15.035s.508.405.936-.09c0 0 .47-.42.134-.932 0 0-.244-.37-.676-.552 0 0-.412-.186-.505-.491 0 0 .13-.556.636-.26 0 0 .19.22.3.26 0 0 .15 0 .111-.332l-.037-.276s-.036-.202-.297 0c0 0-.244.092-.303 0 0 0-.712-.057-.73.697 0 0-.074.514.713.842 0 0 .581.276.544.624 0 0-.076.622-.695.31M31.085 17.146l.06-.291v-.042a.328.328 0 0 0-.101-.112c-.112-.08-.159.065-.205.185l.109.358.137-.098z"/>            <path fill="#00020B" d="M31.085 17.146l.06-.291v-.042a.328.328 0 0 0-.101-.112c-.112-.08-.159.065-.205.185l.109.358.137-.098zM30.866 18.878s.003.08.003.204c.043.021.132 0 .182-.015l-.008-.207-.177.018z"/>            <path fill="#00020B" d="M30.866 18.878s.003.08.003.204c.043.021.132 0 .182-.015l-.008-.207-.177.018z"/>            <path fill="#FEFEFE" d="M30.118 19.447s-.057.22-.264.259c0 0-.114.128.057.162 0 0 .356.11.467-.034 0 0 .13.071 0-.387 0 0 .093-.548.322-.548 0 0 .13.074.15.146.002.012.01.019.019.024 0-.116-.003-.191-.003-.191l.167-.018.008.195c.019-.005.03-.01.03-.01s.132-.167.208-.128c0 0 .168.237.186.383 0 0 .077.367-.018.458 0 0-.093.076.13.11 0 0 .431.074.562.019 0 0 .32-.094 0-.202 0 0-.167-.146-.26-.328 0 0-.32-1.412-.694-2.382 0 0-.008-.086-.057-.17v.04l-.057.274-.129.092-.103-.337a.567.567 0 0 1-.029.065s-.598 2.383-.692 2.508zm.915-1.557s.208.55.208.642c0 .092-.02.182-.132.182s-.41-.018-.41-.018l-.115-.183s.13-.515.151-.603l.207-.129.09.109z"/>            <path fill="#00020B" d="M30.118 19.447s-.057.22-.264.259c0 0-.114.128.057.162 0 0 .356.11.467-.034 0 0 .13.071 0-.387 0 0 .093-.548.322-.548 0 0 .13.074.15.146.002.012.01.019.019.024 0-.116-.003-.191-.003-.191l.167-.018.008.195c.019-.005.03-.01.03-.01s.132-.167.208-.128c0 0 .168.237.186.383 0 0 .077.367-.018.458 0 0-.093.076.13.11 0 0 .431.074.562.019 0 0 .32-.094 0-.202 0 0-.167-.146-.26-.328 0 0-.32-1.412-.694-2.382 0 0-.008-.086-.057-.17v.04l-.057.274-.129.092-.103-.337a.567.567 0 0 1-.029.065s-.598 2.383-.692 2.508zm.915-1.557s.208.55.208.642c0 .092-.02.182-.132.182s-.41-.018-.41-.018l-.115-.183s.13-.515.151-.603l.207-.129.09.109z"/>            <path fill="#FEFEFE" d="M31.859 22.281c.095-.022 3.147-.022 3.147-.022.318.022.3-.171.3-.171l-.28-.43c-.074-.133-.206.02-.206.02-.133.174-.581.174-.581.174s.315-.079-.208.02c-.524.095-2.228-.02-2.228-.02-.131-.037-.466.194-.466.194-.058.33.522.235.522.235M30.398 21.928l-2.548-.036c-.432.018-.694-.273-.694-.273l-.15.134c-.145.184-.34.453-.128.488l.335-.022 3.07.04c.34.078.379-.156.379-.156.016-.153-.264-.175-.264-.175M7.412 22.285s-.366 0-.348.46c0 0 .04.348.422.348 0 0 .348-.055.309-.423 0 0-.21-.457-.383-.385M10.437 22.242c.339.097.357-.076.357-.076 0-.139-.28-.37-.28-.37-.077-.06-.36 0-.36 0-.315.231-2.19.06-2.19.06-.112 0-.28.191-.28.191-.056.35.526.215.526.215l2.227-.02M6.878 21.856s-1.724.018-1.873-.022c0 0-.356-.097-.43-.114 0 0-.186-.079-.357.252 0 0-.075.27.206.211h1.931l.523.117s.543-.134 0-.444M30.978 22.177c-.274.053-.375.345-.316.585.057.236.277.295.475.258.198-.038.18-.202.18-.498 0-.292-.339-.345-.339-.345M18.575 22.293s-.364 0-.344.456c0 0 .037.35.425.35 0 0 .34-.054.305-.423 0 0-.212-.458-.386-.383M18.08 21.864s-1.724.019-1.874-.02l-.43-.116s-.188-.079-.357.254c0 0-.074.27.205.21h1.933l.522.118s.545-.137 0-.446M21.64 22.215c.337.096.356-.08.356-.08 0-.134-.28-.37-.28-.37-.075-.055-.357 0-.357 0-.32.236-2.19.061-2.19.061-.115 0-.284.195-.284.195-.055.35.525.213.525.213l2.23-.019"/>            <path fill="#00020B" d="M35.673 41.713c-.089.188-.182.378-.277.568-.01-.025-.023-.049-.033-.075.046.099.088.195.127.282.035.082.061.163.084.242l.02.076.537-1.093h-.458z"/>            <path fill="#AF263D" d="M35.413 42.315c.099-.201.2-.402.293-.602h-.578c.084.175.19.397.285.602"/>            <path fill="#00020B" d="M17.477 57.256C14.228 55.3 8.567 51.048 4.72 43.46a1.95 1.95 0 0 1-.142.114l-.196.137c3.983 7.808 9.852 12.111 13.096 14.028v-.483z"/>            <path fill="#FEFEFE" d="M16.987 26.845a1.077 1.077 0 0 1-.12-.157l-.027.009s-.88.234-1.136.336a1.083 1.083 0 0 1-.407.084h-.003a.825.825 0 0 1-.613-.272.972.972 0 0 1-.13-.175l-.035.008c-.448.138-.92.248-1.185.355a1.112 1.112 0 0 1-.409.085h-.001a.826.826 0 0 1-.614-.273.948.948 0 0 1-.11-.143l-.022.007v-.002c-.419.127-.844.228-1.088.326a1.1 1.1 0 0 1-.411.084h-.003a.83.83 0 0 1-.613-.272 1.045 1.045 0 0 1-.114-.148l-.03.007c-.42.125-.852.23-1.104.33a1.113 1.113 0 0 1-.41.084h-.003a.831.831 0 0 1-.613-.273 1.115 1.115 0 0 1-.118-.157l-.028.009-.02.004c-.432.13-.858.23-1.114.332a1.089 1.089 0 0 1-.41.084h-.003a.827.827 0 0 1-.612-.272c-.06-.065-.1-.127-.13-.175l-.033.01-.013.006c-.447.138-.909.24-1.172.347a1.096 1.096 0 0 1-.41.084h-.004a.83.83 0 0 1-.612-.272 1.06 1.06 0 0 1-.11-.142l-.023.006c-.418.125-.842.226-1.087.324a1.095 1.095 0 0 1-.409.084h-.004a.83.83 0 0 1-.613-.272 1.063 1.063 0 0 1-.14-.181v1.473a41.34 41.34 0 0 0 1.384 8.519h2.691c-.11-.228-.258-.538-.363-.777a1.454 1.454 0 0 1-.134-.551c0-.05.005-.1.015-.151a.652.652 0 0 1 .21-.372c.16-.14.383-.214.676-.236a15.203 15.203 0 0 1 .815-.036c.156 0 .294.006.423.021a1.625 1.625 0 0 1 .588.18 1.34 1.34 0 0 1 .183.13c.007.004.01.008.015.013.148.125.277.286.416.479a93.178 93.178 0 0 0 .947 1.3h4.018a25.96 25.96 0 0 1-.266-.562c-.034-.076-.068-.148-.096-.215a1.442 1.442 0 0 1-.134-.542v-.012c0-.095.016-.193.056-.286a.616.616 0 0 1 .169-.234c.158-.14.38-.214.675-.236.201-.015.38-.024.542-.03.096-.004.187-.006.272-.006.187 0 .35.01.498.033.196.03.362.082.514.168.173.1.31.234.446.4.073.088.144.185.222.292.421.592.76 1.05.895 1.23h1.08V33.22a83.219 83.219 0 0 0-.743-.544c-.15-.107-.312-.225-.489-.35-.065-.048-.128-.094-.188-.14a2.877 2.877 0 0 1-.123-.099 1.6 1.6 0 0 1-.379-.427c-.151-.265-.2-.577-.2-1.01v-.131c.005-.199.017-.423.035-.685.005-.055.012-.105.019-.154.034-.219.102-.392.217-.522l.001-.003a.675.675 0 0 1 .514-.222h.006c.194.001.378.059.553.135a18.354 18.354 0 0 1 .776.361v-2.322a.837.837 0 0 1-.49-.262"/>            <path fill="#00020B" d="M1.474 27.117h.004c.127 0 .262-.026.41-.084.244-.098.668-.2 1.087-.326l-.061-.17-.002-.003a.514.514 0 0 1-.03-.178v-.018c-.052.014-.852.226-1.137.34a.717.717 0 0 1-.267.056.44.44 0 0 1-.336-.15.46.46 0 0 1-.042-.052c-.064.022-.374.13-.379.13.03.05.078.117.14.183a.83.83 0 0 0 .613.272"/>        </g>        <path fill="#00020B" d="M.72 26.66z"/>        <g>            <path fill="#00020B" d="M.72 26.656s-.085-.26-.085-.299a.507.507 0 0 1 .07-.259v-.878a.79.79 0 0 1 .496.109.66.66 0 0 1 .233.25l-.188.106c.1-.056.215-.12.337-.186l.187-.1a1.048 1.048 0 0 0-.366-.395.921.921 0 0 0-.461-.16h-.62l.005 1.906c.368-.083.348-.085.392-.094M1.756 25.405h.002-.002M3.227 24.851c-.198 0-.392.044-.563.112-.215.083-.573.264-.894.435l.113.375c.33-.178.726-.378.92-.455.133-.052.283-.085.424-.084.234.007.43.072.57.28l-.111.062.45-.243a1.04 1.04 0 0 0-.909-.482"/>            <path fill="#00020B" d="M1.77 25.431h.002l.016-.011c.324-.183.659-.36.876-.45a1.47 1.47 0 0 1 .563-.118c.33-.006.693.146.91.511.29-.163.577-.314.774-.393.172-.073.367-.12.567-.12.202 0 .413.05.6.176.133.09.249.221.337.39l.101-.058v.003a7.97 7.97 0 0 1 .768-.391c.172-.071.365-.118.565-.118.198 0 .403.047.587.168.13.084.247.21.335.368l.021-.011c.3-.168.598-.325.8-.407.17-.072.365-.118.562-.118.196 0 .399.046.58.163.13.083.244.204.334.36.298-.167.594-.324.795-.405.173-.072.365-.118.565-.118.328-.007.691.145.906.51l.005-.002a7.71 7.71 0 0 1 .77-.39 1.49 1.49 0 0 1 .568-.12c.202 0 .413.05.6.176.133.09.25.221.337.39l.1-.058c.29-.16.576-.31.77-.388.171-.071.366-.118.565-.118.199 0 .403.047.586.168.131.084.247.21.336.368l.03-.017c.296-.165.59-.32.788-.401.174-.073.368-.118.569-.12.202 0 .411.05.598.177.135.092.252.224.341.397l.022-.014v.004c.324-.18.654-.355.87-.444.171-.072.365-.118.564-.118.33-.006.691.145.908.51l.005-.002c.29-.162.574-.312.77-.39.171-.073.366-.12.566-.12.202 0 .412.05.6.176.132.09.248.222.336.391.322-.181.653-.359.87-.447a1.5 1.5 0 0 1 .566-.118 1.011 1.011 0 0 1 .921.536c.306-.172.614-.334.82-.418.171-.072.364-.118.564-.118.195 0 .399.046.58.163.13.083.246.204.336.359a8.26 8.26 0 0 1 .792-.404c.172-.072.366-.118.565-.118.33-.007.692.145.907.511.292-.163.579-.314.775-.393.173-.073.367-.12.567-.12.202 0 .414.05.599.176.134.09.25.222.339.39.32-.18.65-.358.87-.446.171-.071.365-.118.564-.118.197 0 .404.047.587.168.131.084.247.21.335.369.306-.173.614-.335.82-.42.171-.07.365-.117.564-.117.198 0 .404.047.587.168.135.087.252.215.34.38a2.457 2.457 0 0 0 .171-.085l.285-.165-.001-.306H.942c.159.02.316.074.462.169.145.095.272.236.366.418M7.584 26.508a.536.536 0 0 1-.023-.151l.002-.038.001-.002c-.115.03-.912.246-1.197.36a.759.759 0 0 1-.27.057.439.439 0 0 1-.335-.15c-.014-.015-.028-.03-.038-.046l.008-.003c-.07.027-.142.053-.216.08l-.165.054c.03.05.07.112.13.176.12.13.326.272.612.272h.003c.127 0 .265-.025.41-.083.255-.103.704-.21 1.135-.338l-.002-.003-.055-.185zM12.112 26.536a.51.51 0 0 1-.031-.179v-.018c-.11.03-.86.229-1.133.336a.717.717 0 0 1-.267.057.446.446 0 0 1-.336-.148l-.015-.017c.006-.003-.14.05-.224.077l-.163.054c.027.044.073.101.122.155.118.13.313.266.598.266h.02c.126 0 .261-.03.408-.087.243-.098.667-.2 1.083-.325l-.06-.169-.002-.002zM9.86 26.522a.582.582 0 0 1-.026-.164v-.024c-.141.037-.89.237-1.161.343a.744.744 0 0 1-.271.057.44.44 0 0 1-.356-.176l.018-.007c-.077.03-.156.058-.237.085l-.159.051c.029.046.066.102.119.158.12.13.326.272.612.272h.003c.126 0 .264-.025.41-.084.252-.099.683-.204 1.104-.33l-.056-.18v-.001z"/>            <path fill="#00020B" d="M1.77 25.398l-.013.007h-.002l-.171.094-.339.186c-.004.004-.01.006-.016.01a4.212 4.212 0 0 1-.08.045l-.009.007c-.124.07-.207.119-.253.153l-.004.002a.853.853 0 0 0-.06.05l-.002.002a.529.529 0 0 0-.049.052l-.007.008a.556.556 0 0 0-.036.048l-.008.012a.48.48 0 0 0-.092.283c0 .067.09.304.09.304l.002.003a34.484 34.484 0 0 0 .389-.135l.099-.041.02-.008a2.04 2.04 0 0 0 .108-.05l.01-.005c.03-.015.06-.03.09-.047a1.625 1.625 0 0 0 .11-.068c.003 0 .004-.001.005-.002a.732.732 0 0 0 .06-.044.694.694 0 0 0 .246-.319.53.53 0 0 0 .027-.165l-.002-.008c-.014-.05-.112-.373-.113-.374M4.26 25.594c-.014-.042-.026-.064-.026-.069l-.078-.202h-.002l-.018.01-.17.092a14.258 14.258 0 0 0-.28.15c-.006.004-.01.008-.017.01l-.1.056-.031.018-.087.05-.016.008c-.03.02-.061.035-.088.052a2.863 2.863 0 0 0-.214.132l-.002.002a.853.853 0 0 0-.061.049c-.003.002-.004.004-.005.006a1.236 1.236 0 0 0-.048.049l-.008.01c-.012.017-.024.03-.034.047a.336.336 0 0 0-.035.059l-.009.018-.017.04a.342.342 0 0 0-.023.08c-.003.011-.004.023-.004.034a.103.103 0 0 0-.003.023l-.001.019v.019c0 .076.014.137.03.178l.001.002.06.172.023-.005.155-.05c.083-.027.164-.055.244-.083l.106-.04a5.36 5.36 0 0 0 .147-.062c.005-.004.012-.006.016-.009a1.134 1.134 0 0 0 .127-.062c.036-.02.073-.04.106-.06.105-.066.198-.14.27-.232a.596.596 0 0 0 .098-.185.533.533 0 0 0 .024-.152c0-.026-.003-.052-.007-.08a.44.44 0 0 0-.022-.094M5.732 26.535l.107-.044.016-.007.113-.051.005-.004c.036-.016.068-.034.1-.052l.019-.01.097-.06a.916.916 0 0 0 .241-.224.558.558 0 0 0 .105-.281l.002-.035a.57.57 0 0 0-.02-.144l-.063-.16-.04-.079-.005.003-.175.095a.364.364 0 0 0-.032.017l-.069.037-.26.145-.002.002-.1.057-.121.07a2.74 2.74 0 0 0-.122.077l-.01.006-.013.01-.06.048a.108.108 0 0 0-.013.015c-.013.012-.025.024-.036.037a.508.508 0 0 0-.043.053l-.013.023c-.008.01-.014.023-.02.035l-.012.021c-.007.013-.011.024-.016.037l-.008.02c-.007.016-.011.033-.015.049l-.004.016c-.003.013-.005.027-.006.04v.001a.472.472 0 0 0 .01.178v.003l.048.198.001.007.033-.015.165-.056c.074-.025.146-.051.216-.078M8.877 25.581l-.004-.009a.112.112 0 0 1-.008-.018l-.073-.208-.022.01-.013.009-.116.062-.046.025a7.684 7.684 0 0 0-.31.169l-.05.028a3.113 3.113 0 0 0-.048.028l-.09.05c-.07.041-.129.075-.176.104-.046.03-.083.051-.108.071l-.016.013a.433.433 0 0 0-.044.035l-.023.023c-.01.01-.02.019-.029.03-.007.008-.012.017-.02.025l-.023.03-.016.026a.231.231 0 0 1-.02.032c-.004.009-.007.017-.012.025l-.015.034a.152.152 0 0 1-.008.024c-.002.011-.006.022-.01.033 0 .008-.004.016-.005.023a.223.223 0 0 0-.005.034c-.001.007-.003.013-.003.02v.01l-.003.038a.5.5 0 0 0 .024.15l.054.187.002.002.027-.008.159-.053c.08-.027.16-.054.236-.084l.097-.037a.338.338 0 0 1 .03-.013c.038-.016.076-.032.113-.05l.014-.007c.034-.016.066-.032.097-.05a1.003 1.003 0 0 0 .383-.301.57.57 0 0 0 .114-.325c0-.06-.01-.12-.031-.178l-.003-.009zM11.216 25.768c0-.06-.01-.12-.03-.179v-.003l-.003-.005a.673.673 0 0 0-.029-.064l-.089-.172-.17.092c-.004.001-.006.003-.009.005l-.158.084c-.033.02-.067.038-.099.055a1.157 1.157 0 0 0-.034.02l-.083.045c-.01.007-.022.013-.033.018l-.077.045a5.992 5.992 0 0 0-.298.18l-.018.011-.001.003a.626.626 0 0 0-.115.105c-.003.003-.005.004-.006.007-.013.016-.026.033-.037.05l-.01.014a.331.331 0 0 0-.024.043l-.01.02-.016.038a.618.618 0 0 0-.008.022c-.003.01-.008.022-.01.035l-.005.023-.005.032-.003.022c0 .006 0 .011-.002.016v.028c0 .068.013.123.025.164l.001.002.046.183.01-.003.03-.007.157-.051c.08-.027.162-.055.24-.085.035-.012.068-.026.102-.039l.027-.012.118-.05.014-.007.1-.049a1.119 1.119 0 0 0 .325-.228l.011-.01c.004-.002.005-.006.009-.008l.05-.058.017-.025a.55.55 0 0 0 .1-.261v-.01-.036zM13.483 25.693a.73.73 0 0 0-.024-.1l-.001-.004a.816.816 0 0 0-.032-.077l-.087-.182-.005.003-.15.08-.022.012-.16.087-.117.064-.014.008-.105.059-.024.013a2.776 2.776 0 0 1-.11.061l-.19.114c-.048.029-.085.052-.11.07h-.002a.434.434 0 0 0-.06.052l-.007.005a.601.601 0 0 0-.047.049c-.004.004-.005.009-.01.013a.51.51 0 0 0-.033.044c-.005.006-.007.012-.01.018-.01.013-.017.026-.025.04l-.01.022-.014.037c-.005.008-.005.016-.01.024-.002.01-.007.022-.008.034a.204.204 0 0 0-.007.024l-.005.032c-.002.008-.002.016-.002.024v.019l-.001.019c0 .076.016.137.03.179l.003.003.06.168.001.002.021-.007.154-.05a6.99 6.99 0 0 0 .242-.082c.038-.013.074-.028.11-.041a8.506 8.506 0 0 0 .147-.062l.013-.007c.034-.015.068-.032.102-.05l.025-.013.107-.06a.988.988 0 0 0 .27-.232.532.532 0 0 0 .117-.412"/>            <path fill="#00020B" d="M6.077 25.016a1.1 1.1 0 0 0-.598-.166c-.2 0-.395.044-.568.113-.193.073-.471.21-.755.36l.078.203c0 .003.012.025.027.067a.461.461 0 0 1 .022.096c.297-.157.593-.305.765-.37.136-.054.286-.086.43-.086.147 0 .28.033.392.105.079.051.15.123.209.229l-.08.043a8.39 8.39 0 0 1 .135-.074l.069-.037a.257.257 0 0 1 .03-.017l.182-.098a1.01 1.01 0 0 0-.338-.368M6.006 25.61c-.046.026-.09.052-.133.075l.133-.074M6 25.61l-.002.001H6M4.136 25.334l.02-.01-.02.01"/>            <path fill="#00020B" d="M8.436 25.01a1.098 1.098 0 0 0-.587-.158c-.2 0-.392.043-.565.11a11.06 11.06 0 0 0-.876.423l.001.002.006-.004.04.079.061.161a.528.528 0 0 1 .02.144v-.013c.334-.179.69-.36.886-.436.133-.05.283-.083.427-.083.143 0 .275.03.385.1a.595.595 0 0 1 .2.204l-.051.028c.069-.037.138-.077.212-.115l.045-.025c.04-.021.077-.042.117-.062l.013-.007a.992.992 0 0 0-.334-.349M5.269 26.476a.568.568 0 0 1-.01-.178c-.084.022-.958.256-1.269.38a.735.735 0 0 1-.267.056c-.16 0-.259-.07-.336-.15l-.008-.008.016-.006c-.079.028-.16.057-.243.082l-.155.05a.994.994 0 0 0 .11.144c.12.13.328.271.613.271h.003c.126 0 .263-.025.41-.083.264-.108.736-.212 1.185-.35l-.05-.205v-.003zM23.793 26.474a.586.586 0 0 1-.013-.119c-.002-.018 0-.037.003-.056-.095.025-.959.256-1.267.379a.732.732 0 0 1-.268.056.442.442 0 0 1-.337-.15l-.008-.009a5.053 5.053 0 0 1-.226.077l-.156.05c.029.043.063.093.11.143a.83.83 0 0 0 .614.272h.003c.126 0 .264-.026.41-.084.265-.108.735-.217 1.185-.355l-.048-.2-.002-.004M26.04 26.332c-.412.123-.852.228-1.15.345a.738.738 0 0 1-.267.057.442.442 0 0 1-.337-.15.567.567 0 0 1-.039-.045l.012-.005c-.07.028-.144.054-.217.08l-.166.056c.028.048.07.11.129.176a.842.842 0 0 0 .614.271h.004c.125 0 .262-.026.41-.083.26-.106.72-.215 1.16-.349-.028-.044-.044-.08-.052-.098-.008-.016-.022-.042-.033-.079l-.02-.19-.049.014z"/>            <path fill="#00020B" d="M26.087 26.325l.02.183c.013.037.026.063.033.08.01.017.024.053.053.097a.889.889 0 0 0 .121.16c.118.131.326.272.613.272h.002c.126 0 .262-.026.41-.083.25-.1.682-.205 1.105-.332l-.057-.178a.489.489 0 0 1-.028-.167v-.028c-.087.023-.88.237-1.16.348a.732.732 0 0 1-.27.057.438.438 0 0 1-.359-.176 2.64 2.64 0 0 0 .494-.236 1.01 1.01 0 0 0 .256-.227.536.536 0 0 0 .113-.377 9.2 9.2 0 0 1 .82-.4c.134-.05.283-.084.426-.084.14.001.271.031.381.098.074.045.14.106.197.194l-.068.036.025-.013.196-.107.01-.005.174-.093a.998.998 0 0 0-.334-.339 1.111 1.111 0 0 0-.581-.153c-.2 0-.393.043-.564.11-.207.08-.514.233-.82.396l-.177.094-.16.087-.009.004c-.121.067-.232.13-.328.185-.138.08-.232.136-.284.173a.581.581 0 0 0-.25.416v.008zM30.635 26.535a.524.524 0 0 1-.03-.178v-.019c-.068.019-.854.227-1.137.34a.738.738 0 0 1-.267.056.436.436 0 0 1-.35-.166 8.43 8.43 0 0 1-.224.077l-.155.052c.028.043.065.094.113.148.119.13.327.272.612.272h.004c.125 0 .262-.026.409-.084.246-.098.67-.2 1.087-.326l-.06-.17-.002-.002zM25.061 25.766a.601.601 0 0 0-.03-.177.188.188 0 0 0-.068-.091c-.05-.035-.072-.033-.087-.037-.014-.003-.022-.003-.029-.003h-.049l-.043.024-.237.132-.04.02c-.018.013-.038.023-.057.034l-.046.026a.943.943 0 0 1-.05.029l-.03.017a2.338 2.338 0 0 0-.11.065c-.07.04-.12.072-.153.096a.487.487 0 0 0-.06.049l-.014.013c-.014.014-.027.026-.038.04-.005.005-.01.01-.014.017a.225.225 0 0 0-.028.038c-.005.006-.01.011-.013.018l-.023.039-.01.018c-.006.014-.011.027-.018.04a.575.575 0 0 0-.031.124v.002a.526.526 0 0 0 .01.175s0 .002.002.003l.049.2v.003l.032-.01.166-.056.217-.08a2.676 2.676 0 0 0 .234-.101l.008-.004a1.855 1.855 0 0 0 .214-.122.955.955 0 0 0 .225-.205l.014-.017.02-.027a.53.53 0 0 0 .087-.29v-.002z"/>            <path fill="#00020B" d="M29.737 25.71a.55.55 0 0 0-.027-.12l-.001-.003-.016-.042-.073-.215-.2.107-.206.112a.634.634 0 0 0-.064.035l-.015.009c-.036.018-.07.038-.103.057l-.022.011-.102.059h-.003c-.03.019-.056.035-.083.049a8.83 8.83 0 0 0-.166.1l-.045.033-.009.006a.667.667 0 0 0-.053.044l-.02.02a.368.368 0 0 1-.033.033l-.018.024a.283.283 0 0 0-.024.033c-.006.007-.01.016-.016.025l-.02.032c-.004.009-.009.017-.01.026-.005.01-.011.021-.015.032l-.009.027-.01.03c-.002.009-.003.018-.006.026-.002.01-.004.02-.004.03-.002.009-.004.017-.004.025v.015c0 .009-.002.019 0 .027a.49.49 0 0 0 .027.166l.057.18.002.002.025-.008.157-.052c.08-.025.16-.054.239-.082l.103-.041.027-.011c.04-.016.08-.033.118-.052.005-.002.01-.003.014-.006.033-.015.066-.032.1-.049l.024-.013c.036-.02.073-.04.105-.06a1.185 1.185 0 0 0 .265-.23.568.568 0 0 0 .116-.286v-.046c0-.02 0-.04-.002-.06M32.014 25.766a.6.6 0 0 0-.03-.176l-.002-.005-.002-.005c-.01-.023-.02-.05-.034-.076l-.09-.17-.17.09-.046.026-.121.066-.113.062-.002.001-.12.067a.134.134 0 0 1-.015.009l-.11.063c-.149.085-.25.145-.302.182l-.003.001a.674.674 0 0 0-.162.17c-.01.017-.021.034-.03.052l-.006.015-.02.043-.006.021a.419.419 0 0 1-.012.036.315.315 0 0 1-.005.026c0 .009-.003.02-.004.03-.002.008-.002.017-.002.025l-.002.018V26.357c0 .075.015.136.03.178l.001.002.062.17v.001l.024-.006.152-.049a9.438 9.438 0 0 0 .354-.125l.023-.01c.043-.016.083-.034.124-.052l.01-.005.105-.051.024-.012c.037-.02.074-.04.108-.062a1 1 0 0 0 .27-.232.527.527 0 0 0 .122-.337v-.001z"/>            <path fill="#00020B" d="M32.984 26.444l.002-.15c-.442.138-.949.256-1.27.383a.734.734 0 0 1-.267.057.444.444 0 0 1-.337-.15l-.009-.009c.004 0 .008-.003.012-.004a5.85 5.85 0 0 1-.24.081l-.154.05a.994.994 0 0 0 .11.144c.12.13.329.271.614.271h.004c.125 0 .262-.025.409-.083.27-.11.758-.223 1.215-.366-.022-.037-.034-.066-.041-.081-.009-.022-.037-.088-.048-.143M34.14 25.384a1.014 1.014 0 0 0-.34-.368 1.096 1.096 0 0 0-.599-.165c-.2 0-.393.043-.567.111a8.607 8.607 0 0 0-.775.371l-.003.002.09.17a.927.927 0 0 1 .035.075v.005l.003.004c.011.035.02.07.025.106v-.008c.295-.156.593-.303.763-.368.135-.053.285-.086.43-.085.145 0 .28.033.392.105.073.047.154.13.211.226l.123-.067c.058-.033.15-.08.211-.114"/>            <path fill="#00020B" d="M35.306 26.502l-.016-.188c-.42.127-.898.244-1.201.363a.746.746 0 0 1-.268.057.44.44 0 0 1-.336-.15c-.014-.015-.028-.03-.038-.045.172-.067.332-.141.467-.232a.95.95 0 0 0 .239-.223.534.534 0 0 0 .107-.316v-.014c.334-.18.69-.36.886-.435.134-.052.285-.085.428-.085a.8.8 0 0 1 .383.1c.101.057.188.19.199.207l.004-.002.029-.016.13-.07.176-.096a.014.014 0 0 0 .007-.003 1.156 1.156 0 0 0-.341-.345 1.102 1.102 0 0 0-.587-.157c-.2 0-.393.043-.565.11-.22.084-.549.252-.87.422l-.21.114-.124.067-.008.004c-.113.062-.217.12-.304.171a3.51 3.51 0 0 0-.263.161.588.588 0 0 0-.245.372v.021l-.002.15a.813.813 0 0 0 .09.224c.03.05.07.112.131.178a.83.83 0 0 0 .613.271h.004c.125 0 .262-.026.408-.083.262-.106.722-.215 1.16-.349-.028-.048-.046-.087-.053-.102-.007-.016-.019-.043-.03-.081M39.266 26.886h-.002v.007l-.142.046-.053.016a3.81 3.81 0 0 0-.206.07l.001 1.12c0 1.694-.174 3.892-.722 6.394l.208.007.212.008c.544-2.503.717-4.703.717-6.41l-.013-1.258z"/>            <path fill="#00020B" d="M39.122 26.939l.143-.046v-.007l-.007-1.753-.188.104-.097.051a2.866 2.866 0 0 1-.17.08 2.27 2.27 0 0 0-.183.088l-.14.077-.019.007c-.125.07-.24.133-.336.188-.139.08-.232.136-.283.174a.59.59 0 0 0-.25.403v.024l.022.178c.01.037.024.066.034.083.009.018.024.053.05.094.027.046.067.103.12.161.12.131.328.272.614.272h.003c.125 0 .262-.026.41-.084l.005-.002a3.81 3.81 0 0 1 .22-.076l.052-.016"/>            <path fill="#00020B" d="M38.464 25.54a.618.618 0 0 0-.2-.206.726.726 0 0 0-.385-.099c-.141 0-.294.032-.426.083a9.138 9.138 0 0 0-.82.4l.002.05a.548.548 0 0 1-.115.326.997.997 0 0 1-.256.228 2.717 2.717 0 0 1-.495.237.445.445 0 0 0 .358.175.735.735 0 0 0 .268-.057c.31-.123.774-.23 1.203-.36l.001.027.02.162c.01.039.022.067.032.084.009.019.026.053.05.094-.442.135-.903.244-1.165.35a1.106 1.106 0 0 1-.409.083h-.003a.825.825 0 0 1-.612-.271 1.048 1.048 0 0 1-.122-.16c-.029-.049-.047-.088-.055-.103-.005-.016-.018-.043-.028-.081l-.016-.188-.003-.02a.58.58 0 0 1 .249-.393c.05-.038.144-.092.285-.173.096-.055.21-.12.334-.187l.004-.002.029-.016.13-.07.176-.096c.004 0 .004-.002.007-.003.305-.16.608-.313.813-.391.171-.068.365-.11.564-.11.198-.002.405.043.587.157a.98.98 0 0 1 .34.359c-.066.03-.13.059-.181.087l-.14.078-.02.007z"/>            <path fill="#FEFEFE" d="M.766 26.014a.445.445 0 0 1 .057-.06v-.002c.02-.017.04-.034.062-.05.002 0 .002-.002.003-.002a3.789 3.789 0 0 1 .263-.16l.082-.045.016-.01.19-.105a.66.66 0 0 0-.235-.251.801.801 0 0 0-.5-.11v.88l.018-.024.008-.013a.557.557 0 0 1 .036-.048M3.227 25.235c-.141-.001-.291.032-.424.083-.2.079-.563.26-.9.442l-.018.01a.557.557 0 0 1-.027.175.7.7 0 0 1-.246.32c-.02.014-.039.03-.06.043l-.004.003a1.656 1.656 0 0 1-.088.054l-.023.013-.09.048-.01.004a2.04 2.04 0 0 1-.108.05l-.02.008-.1.04a.044.044 0 0 0-.01.004.466.466 0 0 0 .044.053c.075.08.174.149.335.15.073 0 .16-.016.267-.057.296-.118.728-.219 1.137-.342l.002-.018.002-.023a.506.506 0 0 1 .009-.057.894.894 0 0 1 .012-.036l.007-.021a.762.762 0 0 1 .017-.04l.01-.018a.517.517 0 0 1 .023-.043l.01-.015c.01-.016.023-.031.035-.047l.008-.011a2.405 2.405 0 0 1 .053-.055l.06-.05.003-.001a3.29 3.29 0 0 1 .214-.132l.089-.052.015-.009c.027-.016.058-.032.086-.05a.37.37 0 0 0 .032-.017l.1-.055.017-.01.111-.062c-.14-.208-.336-.273-.57-.28M5.87 25.338a.72.72 0 0 0-.392-.105c-.144 0-.294.033-.43.087-.171.064-.469.212-.765.368.004.027.008.054.008.08a.533.533 0 0 1-.123.336 1.015 1.015 0 0 1-.27.232c-.033.021-.07.04-.106.061l-.028.014a2.045 2.045 0 0 1-.099.049l-.016.007a2.566 2.566 0 0 1-.12.051l-.028.011a2.534 2.534 0 0 1-.122.046c.003.004.007.007.008.01.077.079.176.148.336.149.072 0 .16-.014.267-.057.327-.13.824-.241 1.269-.381a.491.491 0 0 1 .006-.038l.004-.017c.004-.016.008-.032.015-.05l.008-.02c.005-.011.01-.024.017-.036.002-.008.007-.015.01-.022l.02-.035a.454.454 0 0 1 .056-.076.476.476 0 0 1 .037-.037l.014-.015c.018-.016.039-.032.06-.048.004-.003.01-.006.013-.01l.009-.004v-.001a2.04 2.04 0 0 1 .122-.077l.12-.07c.031-.019.066-.037.1-.057.002 0 .002 0 .003-.002l.205-.115a.615.615 0 0 0-.208-.228M8.234 25.334a.73.73 0 0 0-.385-.1c-.144 0-.295.033-.427.084-.194.076-.553.257-.887.436l.001.014-.001.034a.548.548 0 0 1-.106.282.939.939 0 0 1-.24.223c-.03.02-.063.04-.098.06l-.018.01c-.033.018-.065.036-.1.052l-.005.003c-.036.018-.075.035-.112.052l-.018.008-.106.043c-.004 0-.005.003-.009.003.01.016.025.03.04.047.075.079.174.149.333.15.073 0 .16-.016.27-.058.308-.123.77-.23 1.196-.36l.002-.008c0-.007.002-.014.003-.02a.23.23 0 0 1 .005-.034c.001-.008.004-.016.006-.023.002-.012.007-.022.01-.034.002-.008.006-.016.007-.024.007-.01.01-.021.016-.033l.012-.025.019-.032a.95.95 0 0 1 .04-.056c.007-.008.012-.017.018-.025l.03-.03.023-.022c.013-.014.03-.025.045-.037l.016-.012c.024-.02.06-.042.107-.07.048-.03.105-.063.176-.104l.09-.052a.87.87 0 0 0 .049-.027l.05-.029.097-.053.05-.028a.603.603 0 0 0-.199-.205M10.728 25.526l.001-.001a.601.601 0 0 0-.195-.193.724.724 0 0 0-.38-.097c-.141 0-.29.032-.423.083-.185.07-.51.233-.823.4a.523.523 0 0 1-.055.283.574.574 0 0 1-.057.093.985.985 0 0 1-.256.227 1.223 1.223 0 0 1-.126.073 1.416 1.416 0 0 1-.097.05l-.013.006-.114.051a.238.238 0 0 0-.03.013c-.034.012-.063.026-.097.037a.247.247 0 0 1-.018.007l.022.027c.076.08.174.149.335.149a.74.74 0 0 0 .27-.057c.302-.117.746-.223 1.163-.349 0-.004 0-.01.002-.014 0-.007 0-.014.002-.022.002-.01.002-.021.006-.032a.507.507 0 0 1 .014-.058l.008-.022a.498.498 0 0 1 .017-.039l.01-.02a.517.517 0 0 1 .024-.042c.003-.004.005-.01.01-.015.01-.016.024-.032.036-.048 0-.004.004-.006.005-.008a.662.662 0 0 1 .115-.106l.002-.001V25.9l.017-.012a5.56 5.56 0 0 1 .377-.223l.033-.02.082-.044a.307.307 0 0 1 .034-.02l.1-.054v-.001zM12.956 25.526v-.001a.601.601 0 0 0-.194-.193.726.726 0 0 0-.38-.097c-.141 0-.29.032-.424.083-.184.07-.509.233-.822.4a.523.523 0 0 1-.055.283.574.574 0 0 1-.057.093.985.985 0 0 1-.256.227 1.223 1.223 0 0 1-.126.073 1.656 1.656 0 0 1-.097.05l-.013.006-.114.051a.238.238 0 0 0-.03.013c-.034.012-.063.026-.097.037a.247.247 0 0 1-.018.007l.022.027c.076.08.174.149.335.149a.74.74 0 0 0 .27-.057c.302-.117.746-.223 1.163-.349l.001-.014.003-.022c.002-.01.002-.021.005-.032l.005-.023.01-.035.008-.022a.498.498 0 0 1 .017-.039l.01-.02a.517.517 0 0 1 .024-.042l.01-.015c.01-.016.023-.032.036-.048 0-.004.003-.006.005-.008a.662.662 0 0 1 .115-.106l.002-.001V25.9l.017-.012a5.56 5.56 0 0 1 .377-.223l.032-.02.083-.044a.307.307 0 0 1 .034-.02l.1-.054v-.001zM15.28 25.566a.638.638 0 0 0-.21-.228.717.717 0 0 0-.394-.104c-.143-.001-.294.032-.427.085a7.664 7.664 0 0 0-.765.37v.004a.542.542 0 0 1-.118.412 1.002 1.002 0 0 1-.27.232c-.034.021-.07.04-.108.06l-.024.014-.103.05-.011.006-.123.052a.194.194 0 0 0-.024.01l-.11.041a.104.104 0 0 1-.014.005.437.437 0 0 0 .344.159.72.72 0 0 0 .268-.057c.325-.13.823-.24 1.267-.381.003-.017.005-.033.01-.051.004-.018.01-.037.016-.055 0-.006.004-.01.005-.016l.018-.04.01-.02.022-.037.014-.02a.983.983 0 0 1 .027-.037l.016-.018a.274.274 0 0 1 .036-.037l.015-.015a.674.674 0 0 1 .06-.049c.029-.021.07-.048.128-.081.04-.023.082-.05.135-.08.088-.052.193-.11.31-.174M17.433 25.334a.72.72 0 0 0-.384-.1c-.142 0-.294.033-.425.084a9.637 9.637 0 0 0-.89.435v.014a.536.536 0 0 1-.105.316.943.943 0 0 1-.24.223c-.031.021-.063.04-.096.06l-.022.013c-.031.015-.06.032-.092.048l-.012.005c-.035.018-.07.035-.108.05l-.029.013a1.938 1.938 0 0 1-.086.035l-.022.008.038.047c.077.079.175.149.337.15.07 0 .16-.016.267-.058.309-.123.771-.23 1.198-.36v-.01l.003-.016.006-.038.006-.018a.193.193 0 0 1 .012-.039c.001-.007.004-.013.007-.02.003-.013.01-.025.016-.038a.131.131 0 0 0 .009-.02l.023-.04.012-.017a.315.315 0 0 1 .03-.04c.004-.005.008-.012.013-.016a.587.587 0 0 1 .04-.043c.005-.003.007-.008.01-.011l.062-.05h.001l.028-.019a5.516 5.516 0 0 1 .311-.185l.034-.019.045-.025.086-.049.015-.009.103-.056a.613.613 0 0 0-.2-.205M19.749 25.338a.716.716 0 0 0-.391-.104c-.145 0-.295.032-.429.085a9.12 9.12 0 0 0-.823.4.512.512 0 0 1-.037.246.616.616 0 0 1-.075.131.959.959 0 0 1-.258.227 1.45 1.45 0 0 1-.219.12l-.016.008a2.561 2.561 0 0 1-.144.063l-.092.037-.02.007.024.026c.075.08.174.15.334.15.071 0 .16-.014.266-.057.332-.132.845-.247 1.295-.392l.006-.028c0-.006.002-.011.003-.016a.608.608 0 0 1 .016-.054l.007-.017a.337.337 0 0 1 .016-.037c.006-.008.01-.016.015-.025l.015-.03a.368.368 0 0 0 .019-.025l.02-.028a.29.29 0 0 1 .021-.026l.027-.027c.007-.008.014-.016.023-.023.015-.015.034-.028.053-.042.002-.001.002-.003.004-.003l.02-.015.002-.001c.051-.037.127-.08.236-.144l.09-.051.02-.012.184-.105a.616.616 0 0 0-.212-.238M21.753 25.235c-.143-.001-.293.032-.425.083-.201.079-.57.265-.912.447v.002a.535.535 0 0 1-.105.312.874.874 0 0 1-.215.208c-.005.004-.012.01-.019.013-.03.021-.061.04-.092.058l-.025.014a1.329 1.329 0 0 1-.087.046l-.013.008a1.923 1.923 0 0 1-.132.06c-.028.013-.06.025-.09.037l-.017.007a.593.593 0 0 0 .046.055c.075.08.173.149.334.15a.747.747 0 0 0 .269-.057c.295-.118.728-.219 1.136-.342 0-.006 0-.012.002-.018 0-.007 0-.015.003-.023 0-.011.002-.022.005-.033 0-.008.003-.016.005-.023a.258.258 0 0 1 .011-.037.18.18 0 0 0 .006-.02l.019-.044a.507.507 0 0 1 .037-.065l.004-.007a.639.639 0 0 1 .159-.164V25.9c.02-.013.047-.031.08-.05a6.81 6.81 0 0 1 .332-.193.567.567 0 0 1 .024-.015l.088-.05c.013-.006.023-.013.036-.02.035-.019.07-.037.104-.057-.139-.21-.336-.274-.568-.28M24.393 25.338a.708.708 0 0 0-.391-.104c-.143 0-.294.032-.428.085a8.41 8.41 0 0 0-.766.368.486.486 0 0 1 .007.08v.004c0 .11-.039.213-.097.298-.007.012-.016.024-.025.035-.01.014-.022.025-.032.037a1.083 1.083 0 0 1-.237.195c-.034.021-.07.04-.108.06-.007.006-.017.01-.028.016a9.399 9.399 0 0 0-.096.047l-.018.008c-.04.018-.08.035-.12.05l-.03.012c-.034.014-.07.029-.107.041-.004.002-.007.004-.014.005a.443.443 0 0 0 .345.159.72.72 0 0 0 .268-.057c.326-.13.821-.24 1.267-.381a.49.49 0 0 1 .031-.122l.018-.041a.188.188 0 0 0 .01-.019l.023-.038a.388.388 0 0 1 .041-.056c.003-.007.009-.012.014-.017l.037-.04.015-.013a.5.5 0 0 1 .06-.049 3.627 3.627 0 0 1 .262-.161l.03-.017.051-.03c.016-.007.03-.016.046-.025.02-.01.039-.022.057-.033a.425.425 0 0 0 .04-.021l.083-.047a.618.618 0 0 0-.208-.229M26.758 25.334a.722.722 0 0 0-.384-.1c-.143 0-.293.033-.427.084-.195.076-.552.256-.888.434.002.005.002.01.002.013v.003a.536.536 0 0 1-.107.316l-.014.018a.955.955 0 0 1-.225.205c-.03.02-.064.04-.097.06l-.022.011a1.06 1.06 0 0 1-.095.05c-.003.002-.005.004-.008.004-.036.018-.074.035-.111.052l-.022.009a2.678 2.678 0 0 1-.101.041l-.012.005c.012.015.024.03.04.046.075.079.175.149.336.15.071 0 .16-.016.267-.058.311-.123.772-.23 1.196-.36a.58.58 0 0 1 .252-.415c.05-.039.145-.093.283-.174.095-.054.207-.118.328-.184l.009-.005a.611.611 0 0 0-.2-.205M29.06 25.332a.734.734 0 0 0-.381-.098c-.143 0-.293.033-.426.085a9.32 9.32 0 0 0-.82.399l.001.05a.536.536 0 0 1-.115.327.98.98 0 0 1-.255.227 2.614 2.614 0 0 1-.494.236.435.435 0 0 0 .359.176.747.747 0 0 0 .27-.057c.3-.117.743-.223 1.16-.349 0-.004 0-.008.002-.012 0-.01 0-.017.002-.025l.006-.03a.61.61 0 0 1 .015-.057c.003-.01.004-.018.009-.026l.014-.033a.173.173 0 0 1 .011-.026l.02-.032c.005-.01.01-.017.016-.025.007-.012.016-.023.024-.033a.152.152 0 0 1 .019-.023l.032-.034c.006-.006.012-.014.02-.02.016-.015.035-.03.054-.044.002-.002.003-.004.008-.006.013-.01.027-.021.046-.033a4.04 4.04 0 0 1 .148-.09l.018-.01.083-.048.001-.001.104-.058.021-.013a4.929 4.929 0 0 1 .118-.065c.034-.02.07-.039.107-.058a.605.605 0 0 0-.197-.194M31.518 25.515h.003c-.14-.21-.336-.274-.57-.28-.141-.001-.292.032-.425.083a9.094 9.094 0 0 0-.79.383v.008c.003.02.004.04.004.059v.047a.574.574 0 0 1-.196.37c-.055.054-.12.102-.186.145-.033.021-.07.041-.105.06l-.025.014a2.068 2.068 0 0 1-.1.049l-.012.007a2.089 2.089 0 0 1-.12.05l-.025.012-.105.04-.015.006.015.017c.076.079.174.149.334.15.074 0 .16-.016.268-.058.296-.116.727-.217 1.137-.34l.002-.018c0-.009 0-.017.002-.025 0-.01.003-.021.004-.03a.244.244 0 0 0 .005-.026l.012-.035.006-.022.02-.042.007-.016a.39.39 0 0 1 .032-.058.659.659 0 0 1 .16-.163l.002-.002a5.542 5.542 0 0 1 .412-.245.134.134 0 0 0 .015-.009l.12-.067h.002l.113-.064zM32.014 25.768a.52.52 0 0 1-.043.204.616.616 0 0 1-.079.133 1.015 1.015 0 0 1-.27.231 2.112 2.112 0 0 1-.108.062l-.024.012c-.033.017-.07.034-.105.05-.003.003-.008.004-.01.006-.041.018-.081.036-.124.053l-.023.01a4.238 4.238 0 0 1-.113.041l-.011.005.008.01c.076.079.175.148.337.15.072 0 .159-.016.267-.058.325-.13.821-.241 1.266-.382a.577.577 0 0 1 .248-.394 3.51 3.51 0 0 1 .263-.16c.088-.052.195-.111.309-.175a.618.618 0 0 0-.209-.227.712.712 0 0 0-.392-.106c-.144 0-.294.033-.429.086-.17.065-.467.212-.764.369v.007a.379.379 0 0 1 .006.071v.002zM33.82 26.734c.072 0 .16-.014.269-.057.31-.122.77-.23 1.198-.359a.571.571 0 0 1 .25-.417c.05-.038.143-.092.285-.173.097-.056.212-.12.338-.19a.626.626 0 0 0-.203-.204.732.732 0 0 0-.383-.1c-.143 0-.294.033-.428.085-.195.076-.552.255-.886.434v.016a.533.533 0 0 1-.107.315.935.935 0 0 1-.239.223c-.135.09-.295.165-.467.232.01.015.024.03.038.045a.44.44 0 0 0 .336.15M36.127 26.734a.725.725 0 0 0 .269-.057c.309-.122.774-.23 1.201-.36a.575.575 0 0 1 .25-.416c.05-.037.144-.092.282-.172.095-.056.211-.12.335-.188a.598.598 0 0 0-.2-.206.725.725 0 0 0-.384-.1c-.143 0-.295.032-.427.084-.183.07-.508.232-.82.4l.001.049a.547.547 0 0 1-.114.327.996.996 0 0 1-.256.227 2.689 2.689 0 0 1-.495.237l.021.025c.078.08.177.15.337.15M38.438 26.746a.71.71 0 0 0 .268-.058c.048-.02.11-.043.173-.062v-.614c-.015.03-.035.057-.053.084a1.018 1.018 0 0 1-.255.23c-.143.094-.31.171-.492.24l.023.028c.077.08.175.151.336.152M73.423 58.784h1.436c-.107-.337-.195-.603-.195-1.135V53.11c0-1.79-1.258-2.906-3.244-2.906-1.719 0-3.243.85-3.438 2.534l1.489.213c.053-.904.638-1.613 1.897-1.613 1.275 0 1.843.798 1.843 1.914v.514c-2.942 0-5.566.639-5.566 2.872 0 1.436 1.17 2.357 2.73 2.357 1.382 0 2.251-.55 2.853-1.312 0 .462.106.904.195 1.1zm-2.605-.94c-1.01 0-1.666-.46-1.666-1.311 0-1.205 1.666-1.702 4.059-1.702v.726c0 1.436-1.17 2.287-2.393 2.287zm6.297.94h1.489v-4.556c0-1.754 1.063-2.8 2.252-2.8.85 0 1.79.514 1.79 1.79v5.566h1.488v-5.796c0-1.862-1.346-2.783-2.977-2.783-1.241 0-2.056.567-2.641 1.47v-1.258h-1.4v8.367zm12.844-8.579c-2.216 0-3.846 1.684-3.846 4.396 0 2.711 1.63 4.395 3.846 4.395 1.453 0 2.268-.709 2.747-1.471v1.259h1.4V46.376h-1.489v5.105c-.531-.674-1.346-1.276-2.658-1.276zm2.658 5.016c0 2.003-1.524 2.552-2.499 2.552-1.524 0-2.464-1.365-2.464-3.172 0-1.808.94-3.173 2.464-3.173.975 0 2.5.55 2.5 2.552v1.24zm13.347-8.845h-1.418l-4.52 12.408h1.507l1.205-3.368h4.928l1.205 3.368h1.613l-4.52-12.408zm-.763 2.003c.338 1.01 2.04 5.832 2.04 5.832h-4.078s1.684-4.822 2.004-5.832h.034zm11.123 10.617c2.216 0 3.847-1.684 3.847-4.395 0-2.712-1.631-4.396-3.847-4.396-1.453 0-2.269.71-2.747 1.47v-1.258h-1.4V62.33h1.488V57.72c.532.673 1.348 1.276 2.659 1.276zm-2.66-4.963c0-1.896 1.401-2.605 2.5-2.605 1.525 0 2.464 1.365 2.464 3.173 0 1.807-.939 3.172-2.464 3.172-1.099 0-2.5-.709-2.5-2.606v-1.134zm12.702 4.963c2.217 0 3.847-1.684 3.847-4.395 0-2.712-1.63-4.396-3.847-4.396-1.452 0-2.268.71-2.746 1.47v-1.258h-1.4V62.33h1.488V57.72c.531.673 1.347 1.276 2.658 1.276zm-2.658-4.963c0-1.896 1.4-2.605 2.499-2.605 1.525 0 2.464 1.365 2.464 3.173 0 1.807-.94 3.172-2.464 3.172-1.098 0-2.5-.709-2.5-2.606v-1.134zm8.545 4.75h1.49V46.377h-1.49v12.408zm3.798-11.627c0 .514.408.957.976.957a.956.956 0 0 0 .974-.957c0-.585-.407-.975-.974-.975-.568 0-.976.39-.976.975zm.23 11.628h1.49v-8.367h-1.49v8.367zm9.569-2.446c-.426.956-.958 1.506-2.11 1.506-1.701 0-2.41-1.4-2.48-2.978h6.185v-.496c0-2.163-1.224-4.165-3.776-4.165-2.428 0-3.935 1.86-3.935 4.378 0 2.552 1.472 4.413 3.989 4.413 1.737 0 2.8-.85 3.438-2.127l-1.311-.531zm-2.216-4.981c1.294 0 2.216.922 2.286 2.392h-4.608c.141-1.364.993-2.392 2.322-2.392zm9.102-1.152c-2.216 0-3.847 1.684-3.847 4.396 0 2.711 1.63 4.395 3.847 4.395 1.453 0 2.269-.709 2.747-1.471v1.259h1.4V46.376h-1.488v5.105c-.532-.674-1.348-1.276-2.659-1.276zm2.659 5.016c0 2.003-1.525 2.552-2.5 2.552-1.524 0-2.463-1.365-2.463-3.172 0-1.808.939-3.173 2.463-3.173.975 0 2.5.55 2.5 2.552v1.24zm9.871-5.69c0-1.259.834-2.127 2.641-2.127 1.826 0 2.677.922 2.89 2.411l1.524-.39c-.337-2.021-1.932-3.262-4.396-3.262-2.516 0-4.254 1.348-4.254 3.51 0 2.056 1.454 2.996 4.166 3.385 2.34.338 3.12.975 3.12 2.322 0 1.472-1.01 2.393-2.89 2.393-2.321 0-3.102-1.4-3.19-2.712l-1.525.23c.09 2.075 1.703 3.705 4.716 3.705 2.835 0 4.52-1.524 4.52-3.74 0-2.304-1.632-3.155-4.379-3.598-2.251-.372-2.943-.85-2.943-2.127zm8.989 5.07c0 2.534 1.453 4.395 3.953 4.395 1.754 0 2.729-.94 3.367-2.18l-1.382-.532c-.338.798-.816 1.49-2.003 1.49-1.595 0-2.394-1.436-2.394-3.191 0-1.737.799-3.173 2.376-3.173 1.1 0 1.737.602 2.003 1.542l1.383-.532c-.532-1.258-1.525-2.215-3.333-2.215-2.535 0-3.97 1.86-3.97 4.396zm8.83-7.445c0 .514.408.957.976.957a.957.957 0 0 0 .974-.957c0-.585-.408-.975-.974-.975-.568 0-.976.39-.976.975zm.23 11.628h1.49v-8.367h-1.49v8.367zm9.568-2.446c-.425.956-.957 1.506-2.11 1.506-1.7 0-2.41-1.4-2.48-2.978h6.185v-.496c0-2.163-1.223-4.165-3.775-4.165-2.428 0-3.935 1.86-3.935 4.378 0 2.552 1.472 4.413 3.989 4.413 1.737 0 2.8-.85 3.438-2.127l-1.312-.531zm-2.215-4.981c1.294 0 2.215.922 2.286 2.392h-4.608c.141-1.364.993-2.392 2.322-2.392zm5.736 7.427h1.488v-4.556c0-1.754 1.064-2.8 2.251-2.8.852 0 1.79.514 1.79 1.79v5.566h1.49v-5.796c0-1.862-1.348-2.783-2.978-2.783-1.24 0-2.057.567-2.64 1.47v-1.258h-1.401v8.367zM205.4 54.6c0 2.534 1.454 4.395 3.953 4.395 1.755 0 2.73-.94 3.368-2.18l-1.382-.532c-.337.798-.815 1.49-2.004 1.49-1.595 0-2.392-1.436-2.392-3.191 0-1.737.797-3.173 2.375-3.173 1.099 0 1.736.602 2.003 1.542l1.382-.532c-.532-1.258-1.524-2.215-3.332-2.215-2.535 0-3.97 1.86-3.97 4.396zm14.701 1.737c-.425.956-.956 1.506-2.109 1.506-1.701 0-2.41-1.4-2.481-2.978h6.186v-.496c0-2.163-1.223-4.165-3.775-4.165-2.43 0-3.935 1.86-3.935 4.378 0 2.552 1.471 4.413 3.987 4.413 1.737 0 2.8-.85 3.44-2.127l-1.313-.531zm-2.215-4.981c1.293 0 2.215.922 2.287 2.392h-4.609c.142-1.364.992-2.392 2.322-2.392zm6.781 1.24c0-.85.71-1.258 1.649-1.258 1.152 0 1.755.567 1.878 1.525l1.472-.302c-.195-1.454-1.489-2.357-3.297-2.357-1.702 0-3.19.85-3.19 2.464 0 1.347.85 2.109 2.977 2.446 1.613.247 2.163.584 2.163 1.364 0 .869-.709 1.365-1.897 1.365-1.276 0-1.896-.532-2.002-1.666l-1.472.195c.177 1.702 1.418 2.623 3.457 2.623 2.11 0 3.402-1.01 3.402-2.605 0-1.684-1.435-2.234-3.19-2.5-1.311-.194-1.95-.495-1.95-1.293zM70.623 31.174c0-.833.655-1.365 1.985-1.365 1.311 0 2.11.71 2.305 1.843l2.693-.584c-.425-2.18-2.357-3.403-4.927-3.403-2.747 0-4.75 1.24-4.75 3.722 0 2.5 1.967 3.35 4.555 3.758 1.932.3 2.606.744 2.606 1.665 0 1.135-1.028 1.614-2.287 1.614-1.56 0-2.357-.869-2.481-2.056l-2.659.425c.106 2.003 2.002 3.775 5.14 3.775 2.889 0 4.998-1.507 4.998-3.9 0-2.232-1.347-3.26-4.289-3.757-2.02-.337-2.89-.673-2.89-1.737zm8.487 4.927c0 2.819 1.772 4.467 4.342 4.467 2.039 0 3.067-1.045 3.758-2.286l-2.358-.886c-.265.709-.656 1.187-1.436 1.187-1.31 0-1.701-1.329-1.701-2.482 0-1.222.444-2.499 1.684-2.499.744 0 1.276.444 1.47 1.312l2.305-.85c-.585-1.384-1.577-2.43-3.669-2.43-2.623 0-4.395 1.703-4.395 4.467zm9.516 4.219h2.552v-4.342c0-1.56.816-2.251 1.649-2.251.726 0 1.33.39 1.33 1.542v5.05h2.551v-5.813c0-1.914-1.329-2.871-2.977-2.871-1.383 0-2.199.726-2.553 1.4v-5.123h-2.552V40.32zm14.075-8.685c-2.623 0-4.396 1.702-4.396 4.466 0 2.765 1.773 4.467 4.396 4.467 2.64 0 4.413-1.702 4.413-4.467 0-2.764-1.772-4.466-4.413-4.466zm0 7.02c-1.259 0-1.808-1.118-1.808-2.554 0-1.435.55-2.551 1.808-2.551 1.276 0 1.826 1.116 1.826 2.551 0 1.436-.55 2.553-1.826 2.553zm9.973-7.02c-2.623 0-4.395 1.702-4.395 4.466 0 2.765 1.772 4.467 4.395 4.467 2.641 0 4.414-1.702 4.414-4.467 0-2.764-1.773-4.466-4.414-4.466zm0 7.02c-1.258 0-1.807-1.118-1.807-2.554 0-1.435.549-2.551 1.807-2.551 1.277 0 1.826 1.116 1.826 2.551 0 1.436-.55 2.553-1.826 2.553zm6.091 1.665h2.553V27.912h-2.553V40.32zm12.495-8.685c-2.623 0-4.396 1.702-4.396 4.466 0 2.765 1.773 4.467 4.396 4.467 2.642 0 4.414-1.702 4.414-4.467 0-2.764-1.772-4.466-4.414-4.466zm0 7.02c-1.258 0-1.807-1.118-1.807-2.554 0-1.435.55-2.551 1.807-2.551 1.276 0 1.826 1.116 1.826 2.551 0 1.436-.55 2.553-1.826 2.553zm5.188-4.911h1.4v6.576h2.552v-6.576h1.844v-1.86H140.4v-.746c0-1.116.497-1.435 1.047-1.435.514 0 .92.284 1.17.531l1.01-1.843c-.532-.443-1.507-.726-2.482-.726-1.542 0-3.297.868-3.297 3.597v.621h-1.4v1.86zm19.834 6.576v-2.197h-5.92v-3.085h5.424v-2.197h-5.424v-2.73h5.832v-2.199h-8.455V40.32h8.543zm2.25 0h2.552v-4.342c0-1.56.815-2.251 1.648-2.251.727 0 1.33.39 1.33 1.542v5.05h2.552v-5.813c0-1.914-1.33-2.871-2.978-2.871-1.382 0-2.216.709-2.64 1.542v-1.294h-2.464v8.437zm18.892-8.614a2.955 2.955 0 0 0-1.241-.249c-.726 0-1.205.178-1.72.603-.513-.213-1.15-.425-1.931-.425-1.79 0-3.669 1.099-3.669 3.155 0 .833.355 1.578.992 2.092-.761.319-1.205.886-1.205 1.524 0 .532.249 1.205.922 1.56-.815.336-1.205 1.01-1.205 1.736 0 1.667 1.737 2.411 4.13 2.411 2.516 0 4.572-.868 4.572-2.782 0-2.021-1.86-2.358-3.456-2.517-1.56-.142-2.712-.036-2.712-.657 0-.3.302-.496.62-.496.248 0 .497.125 1.152.125 1.932 0 3.758-1.082 3.758-2.996 0-.62-.177-1.206-.514-1.595a.824.824 0 0 1 .497-.16c.195 0 .372.053.531.177l.479-1.506zm-6.15 3.03c0-.992.584-1.47 1.382-1.47.798 0 1.365.478 1.365 1.47 0 .975-.567 1.419-1.365 1.419s-1.383-.444-1.383-1.418zm1.754 5.956c1.17.054 1.755.195 1.755.816 0 .744-.94.975-2.162.975-1.33 0-2.127-.266-2.127-.993 0-.284.07-.762.496-.975.425.071 1.259.142 2.038.177zm5.72-11.521c0 .816.568 1.471 1.524 1.471.958 0 1.525-.655 1.525-1.471 0-.904-.62-1.506-1.525-1.506-.904 0-1.524.602-1.524 1.506zm.249 11.149h2.552v-8.437h-2.552v8.437zm5.03 0h2.551v-4.342c0-1.56.816-2.251 1.65-2.251.726 0 1.328.39 1.328 1.542v5.05h2.553v-5.813c0-1.914-1.33-2.871-2.978-2.871-1.382 0-2.216.709-2.64 1.542v-1.294h-2.465v8.437zm15.989-2.641c-.249.514-.727 1.01-1.613 1.01-1.295 0-1.72-.957-1.755-1.932h5.885v-.62c0-2.446-1.348-4.502-4.184-4.502-2.481 0-4.289 1.684-4.289 4.449 0 2.8 1.755 4.484 4.378 4.484 1.808 0 3.102-.762 3.776-2.003l-2.198-.886zm-1.667-4.236c.922 0 1.595.603 1.631 1.772h-3.314c.07-1.063.637-1.772 1.683-1.772zm11.598 4.236c-.248.514-.727 1.01-1.613 1.01-1.294 0-1.72-.957-1.755-1.932h5.884v-.62c0-2.446-1.346-4.502-4.182-4.502-2.482 0-4.29 1.684-4.29 4.449 0 2.8 1.755 4.484 4.378 4.484 1.808 0 3.102-.762 3.775-2.003l-2.197-.886zm-1.666-4.236c.921 0 1.595.603 1.63 1.772h-3.315c.071-1.063.639-1.772 1.685-1.772zm12.116-1.613c-.372-.16-.763-.195-1.081-.195-1.241 0-2.02.55-2.535 1.666v-1.418h-2.393v8.437h2.553v-3.934c0-1.933 1.17-2.5 1.984-2.5.32 0 .727.07 1.011.284l.46-2.34zm1.27-2.66c0 .817.567 1.472 1.525 1.472.957 0 1.524-.655 1.524-1.471 0-.904-.62-1.506-1.524-1.506s-1.524.602-1.524 1.506zm.249 11.15h2.552v-8.437h-2.552v8.437zm5.03 0h2.552v-4.342c0-1.56.816-2.251 1.649-2.251.727 0 1.329.39 1.329 1.542v5.05h2.553v-5.813c0-1.914-1.33-2.871-2.978-2.871-1.383 0-2.216.709-2.641 1.542v-1.294h-2.464v8.437zm18.892-8.614a2.955 2.955 0 0 0-1.24-.249c-.726 0-1.206.178-1.72.603-.514-.213-1.151-.425-1.932-.425-1.79 0-3.668 1.099-3.668 3.155 0 .833.354 1.578.992 2.092-.762.319-1.205.886-1.205 1.524 0 .532.248 1.205.922 1.56-.816.336-1.205 1.01-1.205 1.736 0 1.667 1.736 2.411 4.129 2.411 2.517 0 4.573-.868 4.573-2.782 0-2.021-1.86-2.358-3.456-2.517-1.56-.142-2.712-.036-2.712-.657 0-.3.302-.496.62-.496.248 0 .497.125 1.152.125 1.932 0 3.758-1.082 3.758-2.996 0-.62-.177-1.206-.514-1.595a.824.824 0 0 1 .496-.16c.195 0 .373.053.532.177l.478-1.506zm-6.15 3.03c0-.992.585-1.47 1.382-1.47.798 0 1.366.478 1.366 1.47 0 .975-.568 1.419-1.366 1.419-.797 0-1.382-.444-1.382-1.418zm1.755 5.956c1.17.054 1.754.195 1.754.816 0 .744-.938.975-2.161.975-1.33 0-2.127-.266-2.127-.993 0-.284.07-.762.496-.975.425.071 1.258.142 2.038.177zM68.212 21.857h2.66v-5.264h4.696v5.264h2.659V9.449h-2.66v4.91h-4.696v-4.91h-2.659v12.408zm17.429 0h2.464a3.449 3.449 0 0 1-.195-1.188v-4.307c0-2.269-1.578-3.19-3.634-3.19-2.003 0-3.633.903-3.81 2.534l2.428.373c0-.514.425-1.028 1.311-1.028.816 0 1.206.46 1.206 1.098v.55c-2.8 0-5.335.709-5.335 2.96 0 1.524 1.099 2.446 2.906 2.446 1.259 0 2.003-.515 2.5-1.312 0 .46.07.94.159 1.064zm-1.985-1.578c-.603 0-1.099-.248-1.099-.762 0-1.01 1.134-1.277 2.854-1.277v.639c0 .886-.868 1.4-1.755 1.4zm12.287-6.913c-.373-.159-.763-.195-1.082-.195-1.24 0-2.02.55-2.534 1.667V13.42h-2.393v8.437h2.553v-3.935c0-1.932 1.17-2.5 1.984-2.5.32 0 .727.071 1.011.284l.46-2.34zm3.653 8.49h2.942l2.943-8.436h-2.535s-1.383 4.59-1.79 6.044h-.036c-.407-1.453-1.808-6.044-1.808-6.044h-2.694l2.978 8.437zm11.867 0h2.463a3.425 3.425 0 0 1-.195-1.187v-4.307c0-2.269-1.577-3.19-3.634-3.19-2.002 0-3.633.903-3.81 2.534l2.428.373c0-.514.425-1.028 1.312-1.028.815 0 1.205.46 1.205 1.098v.55c-2.8 0-5.335.709-5.335 2.96 0 1.524 1.099 2.446 2.907 2.446 1.258 0 2.002-.515 2.5-1.312 0 .46.07.94.159 1.064zm-1.986-1.577c-.603 0-1.099-.248-1.099-.762 0-1.01 1.135-1.277 2.854-1.277v.639c0 .886-.869 1.4-1.755 1.4zm12.287-6.913c-.372-.159-.762-.195-1.08-.195-1.242 0-2.022.55-2.536 1.667V13.42h-2.393v8.437h2.553v-3.935c0-1.932 1.17-2.5 1.985-2.5.319 0 .727.071 1.01.284l.46-2.34zm4.39-.195c-2.144 0-3.828 1.72-3.828 4.467 0 2.765 1.63 4.467 3.704 4.467 1.454 0 2.322-.709 2.765-1.471v1.223h2.464V9.449h-2.552v5.034c-.46-.762-1.365-1.312-2.553-1.312zm2.57 4.733c0 1.542-1.01 2.234-1.985 2.234-1.117 0-1.808-1.064-1.808-2.5 0-1.418.727-2.5 1.897-2.5.939 0 1.897.71 1.897 2.252v.514zm10.776 2.925c-.779 0-1.17-.355-1.807-1.117l-.993 1.01c.673.798 1.454 1.348 2.89 1.348 2.746 0 3.243-2.04 3.243-4.308V9.45h-1.542v8.313c0 2.091-.496 3.067-1.79 3.067zm9.656-7.55c-2.553 0-4.025 1.86-4.025 4.395 0 2.534 1.472 4.396 4.025 4.396 2.552 0 4.023-1.862 4.023-4.396 0-2.535-1.471-4.396-4.023-4.396zm0 7.603c-1.667 0-2.482-1.453-2.482-3.208 0-1.755.815-3.208 2.482-3.208 1.665 0 2.48 1.453 2.48 3.208 0 1.755-.815 3.208-2.48 3.208zm6.187.975h1.489v-4.555c0-1.755 1.081-2.8 2.25-2.8.87 0 1.791.513 1.791 1.789v5.566h1.49V16.06c0-1.862-1.366-2.783-2.98-2.783-1.257 0-2.037.567-2.551 1.365V9.449h-1.49v12.408zm9.65 0h1.488v-4.555c0-1.755 1.063-2.8 2.25-2.8.852 0 1.791.513 1.791 1.789v5.566h1.49V16.06c0-1.862-1.347-2.783-2.978-2.783-1.241 0-2.057.567-2.641 1.47V13.49h-1.4v8.367zm17.334-12.408h-1.418l-4.52 12.408h1.506l1.205-3.368h4.928l1.206 3.368h1.613l-4.52-12.408zm-.763 2.003a851.31 851.31 0 0 0 2.039 5.832h-4.077s1.684-4.822 2.003-5.832h.035zm7.307 9.518c0 .586.425 1.01 1.045 1.01.62 0 1.046-.424 1.046-1.01 0-.585-.426-1.01-1.046-1.01-.62 0-1.045.425-1.045 1.01zm11.396-4.165c2.482 0 4.219-1.188 4.219-3.704 0-2.588-1.649-3.652-4.219-3.652h-4.29v12.408h1.543v-5.052h2.747zm2.66-3.704c0 1.683-1.01 2.464-3.032 2.464h-2.375V10.69h2.375c2.056 0 3.031.655 3.031 2.411zm8.505 8.756h1.436c-.107-.337-.195-.603-.195-1.135v-4.537c0-1.79-1.258-2.907-3.244-2.907-1.719 0-3.244.85-3.438 2.534l1.488.213c.054-.904.638-1.613 1.897-1.613 1.276 0 1.844.798 1.844 1.914v.514c-2.942 0-5.567.639-5.567 2.872 0 1.436 1.17 2.358 2.73 2.358 1.383 0 2.251-.55 2.854-1.312 0 .46.106.904.195 1.099zm-2.606-.94c-1.01 0-1.665-.46-1.665-1.311 0-1.205 1.665-1.702 4.059-1.702v.727c0 1.435-1.17 2.286-2.394 2.286zm13.276-7.427h-1.488v4.556c0 1.755-1.064 2.8-2.216 2.8-.85 0-1.755-.513-1.755-1.79V13.49h-1.49v5.797c0 1.86 1.348 2.783 2.944 2.783 1.24 0 2.02-.568 2.605-1.472v1.259h1.4V13.49zm2.68 8.367h1.49V9.449h-1.49v12.408zm5.248-6.186c0-.85.71-1.259 1.65-1.259 1.15 0 1.754.568 1.878 1.525l1.471-.302c-.195-1.454-1.49-2.357-3.297-2.357-1.702 0-3.19.85-3.19 2.464 0 1.347.85 2.11 2.978 2.446 1.612.247 2.161.584 2.161 1.364 0 .869-.709 1.365-1.896 1.365-1.276 0-1.896-.532-2.003-1.666l-1.47.195c.177 1.702 1.417 2.624 3.455 2.624 2.11 0 3.404-1.01 3.404-2.606 0-1.684-1.436-2.234-3.19-2.5-1.313-.194-1.95-.496-1.95-1.293zm10.722-2.393c-2.552 0-4.023 1.86-4.023 4.396 0 2.534 1.471 4.396 4.023 4.396 2.553 0 4.023-1.862 4.023-4.396 0-2.535-1.47-4.396-4.023-4.396zm0 7.604c-1.666 0-2.482-1.453-2.482-3.208 0-1.755.816-3.208 2.482-3.208 1.666 0 2.481 1.453 2.481 3.208 0 1.755-.815 3.208-2.481 3.208zm6.188.975h1.489v-4.555c0-1.755 1.064-2.8 2.25-2.8.851 0 1.791.513 1.791 1.789v5.566h1.489V16.06c0-1.862-1.347-2.783-2.978-2.783-1.24 0-2.056.567-2.641 1.47V13.49h-1.4v8.367z"/>            <path stroke="#231F20" stroke-width="2" d="M53.746.885V71.27"/>        </g>    </g></svg>